Panamera-Regular.ufo
<glyph name="exclam" format="1">
  <advance width="310"/>
  <unicode hex="0021"/>
  <outline>
    <contour>
      <point x="221" y="730" type="line"/>
      <point x="89" y="730" type="line"/>
      <point x="89" y="583" type="line"/>
      <point x="110" y="203" type="line"/>
      <point x="200" y="203" type="line"/>
      <point x="221" y="583" type="line"/>
    </contour>
    <component base="period" xOffset="20"/>
  </outline>
</glyph>
<glyph name="numbersign" format="1">
  <advance width="823"/>
  <unicode hex="0023"/>
  <outline>
    <contour>
      <point x="80" y="-3" type="line"/>
      <point x="191" y="-3" type="line"/>
      <point x="444" y="753" type="line"/>
      <point x="333" y="753" type="line"/>
    </contour>
    <contour>
      <point x="393" y="-3" type="line"/>
      <point x="504" y="-3" type="line"/>
      <point x="757" y="753" type="line"/>
      <point x="646" y="753" type="line"/>
    </contour>
    <contour>
      <point x="96" y="456" type="line"/>
      <point x="806" y="456" type="line"/>
      <point x="806" y="559" type="line"/>
      <point x="96" y="559" type="line"/>
    </contour>
    <contour>
      <point x="35" y="173" type="line"/>
      <point x="734" y="173" type="line"/>
      <point x="734" y="277" type="line"/>
      <point x="35" y="277" type="line"/>
    </contour>
  </outline>
</glyph>
<glyph name="dollar" format="1">
  <advance width="646"/>
  <unicode hex="0024"/>
  <outline>
    <contour>
      <point x="260.810" y="804" type="line"/>
      <point x="260.810" y="-101" type="line"/>
      <point x="322.043" y="-101" type="line"/>
      <point x="322.043" y="804" type="line"/>
    </contour>
    <contour>
      <point x="355.957" y="804" type="line"/>
      <point x="355.957" y="-101" type="line"/>
      <point x="417.190" y="-101" type="line"/>
      <point x="417.190" y="804" type="line"/>
    </contour>
    <component base="S"/>
  </outline>
</glyph>
<glyph name="ampersand" format="1">
  <advance width="889.663"/>
  <unicode hex="0026"/>
  <outline>
    <contour>
      <point x="809" y="98"/>
      <point x="784" y="46"/>
      <point x="718" y="46" type="curve" smooth="yes"/>
      <point x="588" y="46"/>
      <point x="273" y="441"/>
      <point x="273" y="575" type="curve" smooth="yes"/>
      <point x="273" y="633"/>
      <point x="321" y="661"/>
      <point x="384" y="661" type="curve" smooth="yes"/>
      <point x="445" y="661"/>
      <point x="477" y="625"/>
      <point x="477" y="580" type="curve" smooth="yes"/>
      <point x="477" y="439"/>
      <point x="20" y="479"/>
      <point x="20" y="217" type="curve" smooth="yes"/>
      <point x="20" y="76"/>
      <point x="148" y="-44"/>
      <point x="327" y="-44" type="curve" smooth="yes"/>
      <point x="501" y="-44"/>
      <point x="707" y="85"/>
      <point x="707" y="434" type="curve"/>
      <point x="587" y="434" type="line"/>
      <point x="587" y="143"/>
      <point x="487" y="52"/>
      <point x="327" y="52" type="curve" smooth="yes"/>
      <point x="212" y="52"/>
      <point x="130" y="119"/>
      <point x="130" y="217" type="curve" smooth="yes"/>
      <point x="130" y="417"/>
      <point x="587" y="349"/>
      <point x="587" y="580" type="curve" smooth="yes"/>
      <point x="587" y="673"/>
      <point x="503" y="751"/>
      <point x="384" y="751" type="curve" smooth="yes"/>
      <point x="270" y="751"/>
      <point x="163" y="687"/>
      <point x="163" y="575" type="curve" smooth="yes"/>
      <point x="163" y="400"/>
      <point x="512" y="-44"/>
      <point x="718" y="-44" type="curve" smooth="yes"/>
      <point x="862" y="-44"/>
      <point x="930" y="89"/>
      <point x="802" y="242" type="curve"/>
      <point x="718" y="184" type="line"/>
    </contour>
    <contour>
      <point x="393" y="700" type="move" name="top"/>
    </contour>
    <contour>
      <point x="393" y="0" type="move" name="bottom"/>
    </contour>
  </outline>
</glyph>
<glyph name="comma" format="1">
  <advance width="360"/>
  <unicode hex="002C"/>
  <outline>
    <contour>
      <point x="132" y="-37"/>
      <point x="131" y="-74"/>
      <point x="86" y="-101" type="curve"/>
      <point x="86" y="-159" type="line"/>
      <point x="180" y="-135"/>
      <point x="201" y="-35"/>
      <point x="201" y="0" type="curve"/>
      <point x="201" y="120" type="line"/>
      <point x="132" y="0" type="line"/>
    </contour>
    <component base="period"/>
  </outline>
</glyph>
<glyph name="one" format="1">
  <advance width="377"/>
  <unicode hex="0031"/>
  <outline>
    <contour>
      <point x="307" y="700" type="line"/>
      <point x="199" y="700" type="line"/>
      <point x="199" y="0" type="line"/>
      <point x="307" y="0" type="line"/>
    </contour>
    <contour>
      <point x="299" y="552" type="line"/>
      <point x="299" y="700" type="line"/>
      <point x="199" y="700" type="line"/>
      <point x="199" y="645"/>
      <point x="139" y="617"/>
      <point x="50" y="630" type="curve"/>
      <point x="50" y="552" type="line"/>
    </contour>
  </outline>
</glyph>
<glyph name="four" format="1">
  <advance width="617"/>
  <unicode hex="0034"/>
  <outline>
    <contour>
      <point x="45" y="289" type="line"/>
      <point x="44" y="192" type="line"/>
      <point x="577" y="191" type="line"/>
      <point x="577" y="289" type="line"/>
      <point x="172" y="289" type="line"/>
      <point x="441" y="628" type="line"/>
      <point x="376" y="700" type="line"/>
    </contour>
    <contour>
      <point x="376" y="700" type="line"/>
      <point x="356" y="656" type="line"/>
      <point x="356" y="0" type="line"/>
      <point x="464" y="0" type="line"/>
      <point x="464" y="700" type="line"/>
    </contour>
  </outline>
</glyph>
<glyph name="five" format="1">
  <advance width="600"/>
  <unicode hex="0035"/>
  <outline>
    <contour>
      <point x="61" y="216" type="line"/>
      <point x="61" y="73"/>
      <point x="179" y="-10"/>
      <point x="304" y="-10" type="curve" smooth="yes"/>
      <point x="429" y="-10"/>
      <point x="552" y="78"/>
      <point x="552" y="221" type="curve" smooth="yes"/>
      <point x="552" y="374"/>
      <point x="429" y="452"/>
      <point x="304" y="452" type="curve" smooth="yes"/>
      <point x="248" y="452"/>
      <point x="194" y="435"/>
      <point x="151" y="394" type="curve"/>
      <point x="210" y="317" type="line"/>
      <point x="235" y="349"/>
      <point x="268" y="361"/>
      <point x="304" y="361" type="curve" smooth="yes"/>
      <point x="378" y="361"/>
      <point x="445" y="318"/>
      <point x="445" y="221" type="curve" smooth="yes"/>
      <point x="445" y="134"/>
      <point x="378" y="81"/>
      <point x="304" y="81" type="curve" smooth="yes"/>
      <point x="230" y="81"/>
      <point x="168" y="129"/>
      <point x="168" y="216" type="curve"/>
    </contour>
    <contour>
      <point x="210" y="365" type="line"/>
      <point x="210" y="700" type="line"/>
      <point x="102" y="700" type="line"/>
      <point x="102" y="317" type="line"/>
      <point x="210" y="317" type="line"/>
    </contour>
    <contour>
      <point x="515" y="592" type="line"/>
      <point x="515" y="700" type="line"/>
      <point x="123" y="700" type="line"/>
      <point x="123" y="592" type="line" smooth="yes"/>
    </contour>
  </outline>
</glyph>
<glyph name="seven" format="1">
  <advance width="504"/>
  <unicode hex="0037"/>
  <outline>
    <contour>
      <point x="494" y="700" type="line"/>
      <point x="376" y="700" type="line"/>
      <point x="36" y="0" type="line"/>
      <point x="164" y="0" type="line"/>
    </contour>
    <contour>
      <point x="409" y="592" type="line"/>
      <point x="492" y="700" type="line"/>
      <point x="46" y="700" type="line"/>
      <point x="46" y="592" type="line"/>
    </contour>
  </outline>
</glyph>
<glyph name="eight" format="1">
  <advance width="527"/>
  <unicode hex="0038"/>
  <outline>
    <contour>
      <point x="138" y="435"/>
      <point x="20" y="355"/>
      <point x="20" y="218" type="curve" smooth="yes"/>
      <point x="20" y="80"/>
      <point x="139" y="0"/>
      <point x="264" y="0" type="curve" smooth="yes"/>
      <point x="389" y="0"/>
      <point x="507" y="79"/>
      <point x="507" y="217" type="curve" smooth="yes"/>
      <point x="507" y="354"/>
      <point x="388" y="435"/>
      <point x="263" y="435" type="curve" smooth="yes"/>
    </contour>
    <contour>
      <point x="338" y="347"/>
      <point x="399" y="301"/>
      <point x="399" y="218" type="curve" smooth="yes"/>
      <point x="399" y="134"/>
      <point x="337" y="88"/>
      <point x="263" y="88" type="curve" smooth="yes"/>
      <point x="189" y="88"/>
      <point x="128" y="133"/>
      <point x="128" y="217" type="curve" smooth="yes"/>
      <point x="128" y="300"/>
      <point x="190" y="347"/>
      <point x="264" y="347" type="curve" smooth="yes"/>
    </contour>
    <contour>
      <point x="168" y="705"/>
      <point x="60" y="644"/>
      <point x="60" y="526" type="curve" smooth="yes"/>
      <point x="60" y="408"/>
      <point x="169" y="347"/>
      <point x="264" y="347" type="curve" smooth="yes"/>
      <point x="359" y="347"/>
      <point x="467" y="407"/>
      <point x="467" y="525" type="curve" smooth="yes"/>
      <point x="467" y="643"/>
      <point x="358" y="705"/>
      <point x="263" y="705" type="curve" smooth="yes"/>
    </contour>
    <contour>
      <point x="308" y="617"/>
      <point x="359" y="591"/>
      <point x="359" y="526" type="curve" smooth="yes"/>
      <point x="359" y="471"/>
      <point x="317" y="435"/>
      <point x="263" y="435" type="curve" smooth="yes"/>
      <point x="209" y="435"/>
      <point x="168" y="471"/>
      <point x="168" y="525" type="curve" smooth="yes"/>
      <point x="168" y="590"/>
      <point x="220" y="617"/>
      <point x="264" y="617" type="curve" smooth="yes"/>
    </contour>
  </outline>
</glyph>
<glyph name="nine" format="1">
  <advance width="600"/>
  <unicode hex="0039"/>
  <outline>
    <contour>
      <point x="185" y="712"/>
      <point x="67" y="632"/>
      <point x="67" y="495" type="curve" smooth="yes"/>
      <point x="67" y="357"/>
      <point x="186" y="277"/>
      <point x="311" y="277" type="curve" smooth="yes"/>
      <point x="436" y="277"/>
      <point x="554" y="356"/>
      <point x="554" y="494" type="curve" smooth="yes"/>
      <point x="554" y="631"/>
      <point x="435" y="712"/>
      <point x="310" y="712" type="curve" smooth="yes"/>
    </contour>
    <contour>
      <point x="358" y="319" type="line"/>
      <point x="160" y="0" type="line"/>
      <point x="292" y="0" type="line"/>
      <point x="529" y="393" type="line"/>
    </contour>
    <contour>
      <point x="385" y="624"/>
      <point x="446" y="578"/>
      <point x="446" y="495" type="curve" smooth="yes"/>
      <point x="446" y="411"/>
      <point x="384" y="365"/>
      <point x="310" y="365" type="curve" smooth="yes"/>
      <point x="236" y="365"/>
      <point x="175" y="410"/>
      <point x="175" y="494" type="curve" smooth="yes"/>
      <point x="175" y="577"/>
      <point x="237" y="624"/>
      <point x="311" y="624" type="curve" smooth="yes"/>
    </contour>
  </outline>
</glyph>
<glyph name="less" format="1">
  <advance width="600"/>
  <unicode hex="003C"/>
  <outline>
    <contour>
      <point x="557" y="579" type="line"/>
      <point x="25" y="287" type="line"/>
      <point x="224" y="287" type="line"/>
      <point x="557" y="456" type="line"/>
    </contour>
    <contour>
      <point x="557" y="118" type="line"/>
      <point x="224" y="287" type="line"/>
      <point x="25" y="287" type="line"/>
      <point x="557" y="-6" type="line"/>
    </contour>
  </outline>
</glyph>
<glyph name="question" format="1">
  <advance width="501"/>
  <unicode hex="003F"/>
  <outline>
    <contour>
      <point x="333" y="630"/>
      <point x="369" y="600"/>
      <point x="369" y="556" type="curve" smooth="yes"/>
      <point x="369" y="515"/>
      <point x="329" y="507"/>
      <point x="256" y="477" type="curve" smooth="yes"/>
      <point x="206" y="456"/>
      <point x="122" y="420"/>
      <point x="122" y="330" type="curve" smooth="yes"/>
      <point x="122" y="237"/>
      <point x="200" y="193"/>
      <point x="274" y="193" type="curve" smooth="yes"/>
      <point x="345" y="193"/>
      <point x="392" y="227"/>
      <point x="420" y="306" type="curve"/>
      <point x="331" y="334" type="line"/>
      <point x="332" y="299"/>
      <point x="305" y="280"/>
      <point x="279" y="280" type="curve" smooth="yes"/>
      <point x="248" y="280"/>
      <point x="229" y="300"/>
      <point x="229" y="330" type="curve" smooth="yes"/>
      <point x="229" y="367"/>
      <point x="255" y="384"/>
      <point x="286" y="398" type="curve" smooth="yes"/>
      <point x="344" y="425"/>
      <point x="473" y="449"/>
      <point x="473" y="558" type="curve" smooth="yes"/>
      <point x="473" y="642"/>
      <point x="407" y="720"/>
      <point x="274" y="720" type="curve" smooth="yes"/>
      <point x="179" y="720"/>
      <point x="84" y="667"/>
      <point x="58" y="578" type="curve"/>
      <point x="142" y="516" type="line"/>
      <point x="152" y="576"/>
      <point x="197" y="630"/>
      <point x="274" y="630" type="curve" smooth="yes"/>
    </contour>
    <component base="period" xOffset="140"/>
  </outline>
</glyph>
<glyph name="at" format="1">
  <advance width="1008"/>
  <unicode hex="0040"/>
  <outline>
    <contour>
      <point x="231" y="697"/>
      <point x="50" y="488"/>
      <point x="50" y="233" type="curve" smooth="yes"/>
      <point x="50" y="-19"/>
      <point x="232" y="-226"/>
      <point x="504" y="-226" type="curve" smooth="yes"/>
      <point x="625" y="-226"/>
      <point x="728" y="-195"/>
      <point x="805" y="-128" type="curve"/>
      <point x="724" y="-51" type="line"/>
      <point x="668" y="-100"/>
      <point x="593" y="-119"/>
      <point x="504" y="-119" type="curve" smooth="yes"/>
      <point x="302" y="-119"/>
      <point x="172" y="29"/>
      <point x="172" y="233" type="curve" smooth="yes"/>
      <point x="172" y="440"/>
      <point x="303" y="591"/>
      <point x="504" y="591" type="curve" smooth="yes"/>
      <point x="706" y="591"/>
      <point x="836" y="440"/>
      <point x="836" y="233" type="curve" smooth="yes"/>
      <point x="836" y="117"/>
      <point x="807" y="88"/>
      <point x="772" y="88" type="curve" smooth="yes"/>
      <point x="737" y="88"/>
      <point x="720" y="108"/>
      <point x="720" y="134" type="curve" smooth="yes"/>
      <point x="720" y="304" type="line" smooth="yes"/>
      <point x="720" y="385"/>
      <point x="702" y="510"/>
      <point x="511" y="510" type="curve" smooth="yes"/>
      <point x="389" y="510"/>
      <point x="287" y="429"/>
      <point x="307" y="338" type="curve"/>
      <point x="426" y="337" type="line"/>
      <point x="421" y="349"/>
      <point x="432" y="420"/>
      <point x="511" y="420" type="curve" smooth="yes"/>
      <point x="600" y="420"/>
      <point x="611" y="366"/>
      <point x="612" y="301" type="curve"/>
      <point x="612" y="135" type="line" smooth="yes"/>
      <point x="612" y="57"/>
      <point x="668" y="-12"/>
      <point x="765" y="-12" type="curve" smooth="yes"/>
      <point x="894" y="-12"/>
      <point x="958" y="93"/>
      <point x="958" y="233" type="curve" smooth="yes"/>
      <point x="958" y="488"/>
      <point x="777" y="697"/>
      <point x="504" y="697" type="curve" smooth="yes"/>
    </contour>
    <contour>
      <point x="633" y="359"/>
      <point x="600" y="303"/>
      <point x="473" y="290" type="curve" smooth="yes"/>
      <point x="317" y="274"/>
      <point x="264" y="216"/>
      <point x="264" y="140" type="curve" smooth="yes"/>
      <point x="264" y="49"/>
      <point x="331" y="-12"/>
      <point x="453" y="-12" type="curve" smooth="yes"/>
      <point x="595" y="-12"/>
      <point x="651" y="96"/>
      <point x="651" y="191" type="curve"/>
      <point x="612" y="228" type="line"/>
      <point x="612" y="112"/>
      <point x="543" y="65"/>
      <point x="467" y="65" type="curve" smooth="yes"/>
      <point x="396" y="65"/>
      <point x="377" y="112"/>
      <point x="377" y="145" type="curve" smooth="yes"/>
      <point x="377" y="188"/>
      <point x="419" y="215"/>
      <point x="478" y="222" type="curve" smooth="yes"/>
      <point x="578" y="234"/>
      <point x="664" y="276"/>
      <point x="664" y="367" type="curve"/>
      <point x="575" y="405" type="line"/>
    </contour>
  </outline>
</glyph>
<glyph name="A" format="1">
  <advance width="756"/>
  <unicode hex="0041"/>
  <outline>
    <contour>
      <point x="326" y="700" type="line"/>
      <point x="608" y="0" type="line"/>
      <point x="726" y="0" type="line"/>
      <point x="442" y="700" type="line"/>
    </contour>
    <contour>
      <point x="314" y="700" type="line"/>
      <point x="30" y="0" type="line"/>
      <point x="148" y="0" type="line"/>
      <point x="430" y="700" type="line"/>
    </contour>
    <contour>
      <point x="198.787" y="280" type="line"/>
      <point x="198.787" y="186" type="line"/>
      <point x="561.213" y="186" type="line"/>
      <point x="561.213" y="280" type="line"/>
    </contour>
    <contour>
      <point x="676" y="10" type="move" name="ogonek"/>
    </contour>
    <contour>
      <point x="378" y="700" type="move" name="top"/>
    </contour>
  </outline>
</glyph>
<glyph name="B" format="1">
  <advance width="573"/>
  <unicode hex="0042"/>
  <outline>
    <contour>
      <point x="66.915" y="441" type="line"/>
      <point x="66.915" y="352" type="line"/>
      <point x="274" y="352" type="line" smooth="yes"/>
      <point x="372" y="352"/>
      <point x="437" y="313"/>
      <point x="437" y="222" type="curve" smooth="yes"/>
      <point x="437" y="135"/>
      <point x="375" y="98"/>
      <point x="269" y="98" type="curve" smooth="yes"/>
      <point x="74" y="98" type="line"/>
      <point x="74" y="0" type="line"/>
      <point x="288" y="0" type="line" smooth="yes"/>
      <point x="441" y="0"/>
      <point x="556" y="71"/>
      <point x="556" y="222" type="curve" smooth="yes"/>
      <point x="556" y="369"/>
      <point x="453" y="441"/>
      <point x="291" y="441" type="curve" smooth="yes"/>
    </contour>
    <contour>
      <point x="40" y="700" type="line"/>
      <point x="40" y="0" type="line"/>
      <point x="148" y="0" type="line"/>
      <point x="148" y="700" type="line"/>
    </contour>
    <contour>
      <point x="68" y="700" type="line"/>
      <point x="68" y="602" type="line"/>
      <point x="231" y="602" type="line" smooth="yes"/>
      <point x="300" y="602"/>
      <point x="333" y="572"/>
      <point x="333" y="523" type="curve" smooth="yes"/>
      <point x="333" y="474"/>
      <point x="301" y="441"/>
      <point x="228" y="441" type="curve" smooth="yes"/>
      <point x="66.915" y="441" type="line"/>
      <point x="66.915" y="361" type="line"/>
      <point x="224" y="362" type="line" smooth="yes"/>
      <point x="334" y="362"/>
      <point x="441" y="400"/>
      <point x="441" y="533" type="curve" smooth="yes"/>
      <point x="441" y="662"/>
      <point x="340" y="700"/>
      <point x="231" y="700" type="curve" smooth="yes"/>
    </contour>
  </outline>
</glyph>
<glyph name="C" format="1">
  <advance width="723"/>
  <unicode hex="0043"/>
  <outline>
    <contour>
      <point x="189" y="705"/>
      <point x="50" y="544"/>
      <point x="50" y="348" type="curve" smooth="yes"/>
      <point x="50" y="154"/>
      <point x="190" y="-5"/>
      <point x="399" y="-5" type="curve" smooth="yes"/>
      <point x="529" y="-5"/>
      <point x="632" y="52"/>
      <point x="691" y="144" type="curve"/>
      <point x="589" y="193" type="line"/>
      <point x="548" y="129"/>
      <point x="478" y="93"/>
      <point x="399" y="93" type="curve" smooth="yes"/>
      <point x="263" y="93"/>
      <point x="168" y="200"/>
      <point x="168" y="348" type="curve" smooth="yes"/>
      <point x="168" y="498"/>
      <point x="264" y="607"/>
      <point x="399" y="607" type="curve" smooth="yes"/>
      <point x="480" y="607"/>
      <point x="551" y="569"/>
      <point x="592" y="501" type="curve"/>
      <point x="693" y="552" type="line"/>
      <point x="633" y="646"/>
      <point x="530" y="705"/>
      <point x="399" y="705" type="curve" smooth="yes"/>
    </contour>
    <contour>
      <point x="367" y="700" type="move" name="top"/>
    </contour>
    <contour>
      <point x="380" y="0" type="move" name="bottom"/>
    </contour>
  </outline>
</glyph>
<glyph name="D" format="1">
  <advance width="626"/>
  <unicode hex="0044"/>
  <outline>
    <contour>
      <point x="71" y="700" type="line"/>
      <point x="71" y="602" type="line"/>
      <point x="220" y="602" type="line"/>
      <point x="373" y="602"/>
      <point x="488" y="537"/>
      <point x="488" y="351" type="curve" smooth="yes"/>
      <point x="488" y="169"/>
      <point x="392" y="98"/>
      <point x="236" y="98" type="curve"/>
      <point x="69" y="98" type="line"/>
      <point x="69" y="0" type="line"/>
      <point x="236" y="0" type="line"/>
      <point x="439" y="0"/>
      <point x="601" y="105"/>
      <point x="601" y="351" type="curve" smooth="yes"/>
      <point x="601" y="602"/>
      <point x="418" y="700"/>
      <point x="220" y="700" type="curve"/>
    </contour>
    <contour>
      <point x="40" y="700" type="line"/>
      <point x="40" y="0" type="line"/>
      <point x="148" y="0" type="line"/>
      <point x="148" y="700" type="line"/>
    </contour>
    <contour>
      <point x="311" y="350" type="move" name="center"/>
    </contour>
    <contour>
      <point x="311" y="700" type="move" name="top"/>
    </contour>
  </outline>
</glyph>
<glyph name="E" format="1">
  <advance width="633"/>
  <unicode hex="0045"/>
  <outline>
    <contour>
      <point x="50" y="700" type="line"/>
      <point x="50" y="0" type="line"/>
      <point x="158" y="0" type="line"/>
      <point x="158" y="700" type="line"/>
    </contour>
    <contour>
      <point x="83" y="108" type="line"/>
      <point x="83" y="0" type="line"/>
      <point x="595" y="0" type="line"/>
      <point x="595" y="108" type="line"/>
    </contour>
    <contour>
      <point x="83" y="412" type="line"/>
      <point x="83" y="304" type="line"/>
      <point x="575" y="304" type="line"/>
      <point x="575" y="412" type="line"/>
    </contour>
    <contour>
      <point x="83" y="700" type="line"/>
      <point x="83" y="592" type="line"/>
      <point x="585" y="592" type="line"/>
      <point x="585" y="700" type="line"/>
    </contour>
    <contour>
      <point x="467" y="0" type="move" name="ogonek"/>
    </contour>
    <contour>
      <point x="317" y="0" type="move" name="bottom"/>
    </contour>
    <contour>
      <point x="317" y="700" type="move" name="top"/>
    </contour>
  </outline>
</glyph>
<glyph name="G" format="1">
  <advance width="777"/>
  <unicode hex="0047"/>
  <outline>
    <contour>
      <point x="192" y="705"/>
      <point x="50" y="544"/>
      <point x="50" y="348" type="curve" smooth="yes"/>
      <point x="50" y="154"/>
      <point x="173" y="-3"/>
      <point x="397" y="-5" type="curve" smooth="yes"/>
      <point x="609" y="-7"/>
      <point x="713" y="196"/>
      <point x="686" y="324" type="curve"/>
      <point x="608" y="294" type="line"/>
      <point x="608" y="197"/>
      <point x="557" y="93"/>
      <point x="401" y="93" type="curve" smooth="yes"/>
      <point x="250" y="93"/>
      <point x="168" y="200"/>
      <point x="168" y="348" type="curve" smooth="yes"/>
      <point x="168" y="498"/>
      <point x="267" y="607"/>
      <point x="402" y="607" type="curve" smooth="yes"/>
      <point x="483" y="607"/>
      <point x="551" y="569"/>
      <point x="592" y="501" type="curve"/>
      <point x="693" y="552" type="line"/>
      <point x="633" y="646"/>
      <point x="533" y="705"/>
      <point x="402" y="705" type="curve" smooth="yes"/>
    </contour>
    <contour>
      <point x="608" y="403" type="line"/>
      <point x="608" y="118" type="line"/>
      <point x="618" y="90" type="line"/>
      <point x="618" y="0" type="line"/>
      <point x="716" y="0" type="line"/>
      <point x="716" y="403" type="line"/>
    </contour>
    <contour>
      <point x="389" y="403" type="line"/>
      <point x="389" y="305" type="line"/>
      <point x="716" y="305" type="line"/>
      <point x="715" y="403" type="line"/>
    </contour>
    <contour>
      <point x="389" y="700" type="move" name="top"/>
    </contour>
    <contour>
      <point x="389" y="0" type="move" name="bottom"/>
    </contour>
  </outline>
</glyph>
<glyph name="H" format="1">
  <advance width="701"/>
  <unicode hex="0048"/>
  <outline>
    <contour>
      <point x="158" y="700" type="line"/>
      <point x="50" y="700" type="line"/>
      <point x="50" y="0" type="line"/>
      <point x="158" y="0" type="line"/>
    </contour>
    <contour>
      <point x="651" y="700" type="line"/>
      <point x="543" y="700" type="line"/>
      <point x="543" y="0" type="line"/>
      <point x="651" y="0" type="line"/>
    </contour>
    <contour>
      <point x="605" y="313" type="line"/>
      <point x="605" y="421" type="line"/>
      <point x="83" y="421" type="line"/>
      <point x="83" y="313" type="line"/>
    </contour>
    <contour>
      <point x="351" y="350" type="move" name="center"/>
    </contour>
    <contour>
      <point x="351" y="700" type="move" name="top"/>
    </contour>
  </outline>
</glyph>
<glyph name="I" format="1">
  <advance width="248"/>
  <unicode hex="0049"/>
  <outline>
    <contour>
      <point x="178" y="700" type="line"/>
      <point x="70" y="700" type="line"/>
      <point x="70" y="0" type="line"/>
      <point x="178" y="0" type="line"/>
    </contour>
    <contour>
      <point x="117" y="0" type="move" name="ogonek"/>
    </contour>
    <contour>
      <point x="124" y="700" type="move" name="top"/>
    </contour>
  </outline>
</glyph>
<glyph name="K" format="1">
  <advance width="639"/>
  <unicode hex="004B"/>
  <outline>
    <contour>
      <point x="158" y="700" type="line"/>
      <point x="50" y="700" type="line"/>
      <point x="50" y="0" type="line"/>
      <point x="158" y="0" type="line"/>
    </contour>
    <contour>
      <point x="450" y="700" type="line"/>
      <point x="75" y="290" type="line"/>
      <point x="133" y="208" type="line"/>
      <point x="583" y="700" type="line"/>
    </contour>
    <contour>
      <point x="614" y="0" type="line"/>
      <point x="309" y="464" type="line"/>
      <point x="218" y="405" type="line"/>
      <point x="486" y="0" type="line"/>
    </contour>
    <contour>
      <point x="300" y="700" type="move" name="top"/>
    </contour>
    <contour>
      <point x="300" y="0" type="move" name="bottom"/>
    </contour>
  </outline>
</glyph>
<glyph name="L" format="1">
  <advance width="582"/>
  <unicode hex="004C"/>
  <outline>
    <contour>
      <point x="158" y="700" type="line"/>
      <point x="50" y="700" type="line"/>
      <point x="50" y="0" type="line"/>
      <point x="158" y="0" type="line"/>
    </contour>
    <contour>
      <point x="551" y="0" type="line"/>
      <point x="551" y="108" type="line"/>
      <point x="73" y="108" type="line"/>
      <point x="73" y="0" type="line"/>
    </contour>
    <contour>
      <point x="291" y="700" type="move" name="top"/>
    </contour>
    <contour>
      <point x="291" y="0" type="move" name="bottom"/>
    </contour>
    <contour>
      <point x="562" y="700" type="move" name="topright"/>
    </contour>
  </outline>
</glyph>
<glyph name="N" format="1">
  <advance width="625"/>
  <unicode hex="004E"/>
  <outline>
    <contour>
      <point x="51" y="668" type="line"/>
      <point x="472" y="0" type="line"/>
      <point x="562" y="56" type="line"/>
      <point x="158" y="700" type="line"/>
    </contour>
    <contour>
      <point x="50" y="700" type="line"/>
      <point x="50" y="0" type="line"/>
      <point x="158" y="0" type="line"/>
      <point x="158" y="700" type="line"/>
    </contour>
    <contour>
      <point x="477" y="700" type="line"/>
      <point x="477" y="68" type="line"/>
      <point x="472" y="0" type="line"/>
      <point x="585" y="0" type="line"/>
      <point x="585" y="700" type="line"/>
    </contour>
    <contour>
      <point x="318" y="700" type="move" name="top"/>
    </contour>
    <contour>
      <point x="318" y="0" type="move" name="bottom"/>
    </contour>
  </outline>
</glyph>
<glyph name="P" format="1">
  <advance width="491"/>
  <unicode hex="0050"/>
  <outline>
    <contour>
      <point x="78" y="700" type="line"/>
      <point x="78" y="602" type="line"/>
      <point x="241" y="602" type="line"/>
      <point x="310" y="602"/>
      <point x="353" y="572"/>
      <point x="353" y="503" type="curve" smooth="yes"/>
      <point x="353" y="434"/>
      <point x="311" y="401"/>
      <point x="238" y="401" type="curve"/>
      <point x="95" y="401" type="line"/>
      <point x="95" y="306" type="line"/>
      <point x="238" y="306" type="line"/>
      <point x="348" y="306"/>
      <point x="461" y="352"/>
      <point x="461" y="503" type="curve" smooth="yes"/>
      <point x="461" y="652"/>
      <point x="343" y="700"/>
      <point x="244" y="700" type="curve"/>
    </contour>
    <contour>
      <point x="40" y="700" type="line"/>
      <point x="40" y="0" type="line"/>
      <point x="148" y="0" type="line"/>
      <point x="148" y="700" type="line"/>
    </contour>
  </outline>
</glyph>
<glyph name="Q" format="1">
  <advance width="802"/>
  <unicode hex="0051"/>
  <outline>
    <contour>
      <point x="189" y="705"/>
      <point x="50" y="544"/>
      <point x="50" y="348" type="curve" smooth="yes"/>
      <point x="50" y="154"/>
      <point x="190" y="-5"/>
      <point x="389" y="-5" type="curve" smooth="yes"/>
      <point x="589" y="-5"/>
      <point x="728" y="154"/>
      <point x="728" y="348" type="curve" smooth="yes"/>
      <point x="728" y="544"/>
      <point x="589" y="705"/>
      <point x="389" y="705" type="curve" smooth="yes"/>
    </contour>
    <contour>
      <point x="314" y="306" type="line"/>
      <point x="642" y="0" type="line"/>
      <point x="790" y="0" type="line"/>
      <point x="457" y="306" type="line"/>
    </contour>
    <contour>
      <point x="525" y="607"/>
      <point x="620" y="498"/>
      <point x="620" y="348" type="curve" smooth="yes"/>
      <point x="620" y="200"/>
      <point x="525" y="93"/>
      <point x="389" y="93" type="curve" smooth="yes"/>
      <point x="253" y="93"/>
      <point x="158" y="200"/>
      <point x="158" y="348" type="curve" smooth="yes"/>
      <point x="158" y="498"/>
      <point x="254" y="607"/>
      <point x="389" y="607" type="curve" smooth="yes"/>
    </contour>
  </outline>
</glyph>
<glyph name="R" format="1">
  <advance width="614"/>
  <unicode hex="0052"/>
  <outline>
    <contour>
      <point x="148" y="700" type="line"/>
      <point x="40" y="700" type="line"/>
      <point x="40" y="0" type="line"/>
      <point x="148" y="0" type="line"/>
    </contour>
    <contour>
      <point x="604" y="0" type="line"/>
      <point x="327" y="422" type="line"/>
      <point x="208" y="405" type="line"/>
      <point x="476" y="0" type="line"/>
    </contour>
    <contour>
      <point x="254" y="331" type="line"/>
      <point x="354" y="331"/>
      <point x="471" y="369"/>
      <point x="471" y="523" type="curve" smooth="yes"/>
      <point x="471" y="662"/>
      <point x="360" y="700"/>
      <point x="261" y="700" type="curve"/>
      <point x="98" y="700" type="line"/>
      <point x="98" y="602" type="line"/>
      <point x="134" y="602"/>
      <point x="221" y="602"/>
      <point x="261" y="602" type="curve"/>
      <point x="320" y="602"/>
      <point x="363" y="572"/>
      <point x="363" y="513" type="curve" smooth="yes"/>
      <point x="363" y="454"/>
      <point x="321" y="421"/>
      <point x="258" y="421" type="curve"/>
      <point x="115" y="421" type="line"/>
      <point x="115" y="330" type="line"/>
    </contour>
    <contour>
      <point x="297" y="700" type="move" name="top"/>
    </contour>
    <contour>
      <point x="297" y="0" type="move" name="bottom"/>
    </contour>
  </outline>
</glyph>
<glyph name="T" format="1">
  <advance width="675"/>
  <unicode hex="0054"/>
  <outline>
    <contour>
      <point x="392" y="700" type="line"/>
      <point x="284" y="700" type="line"/>
      <point x="284" y="0" type="line"/>
      <point x="392" y="0" type="line"/>
    </contour>
    <contour>
      <point x="655" y="592" type="line"/>
      <point x="655" y="700" type="line"/>
      <point x="20" y="700" type="line"/>
      <point x="20" y="592" type="line"/>
    </contour>
    <contour>
      <point x="338" y="350" type="move" name="center"/>
    </contour>
    <contour>
      <point x="338" y="0" type="move" name="bottom"/>
    </contour>
    <contour>
      <point x="338" y="700" type="move" name="top"/>
    </contour>
  </outline>
</glyph>
<glyph name="U" format="1">
  <advance width="652"/>
  <unicode hex="0055"/>
  <outline>
    <contour>
      <point x="571" y="700" type="line"/>
      <point x="463" y="700" type="line"/>
      <point x="463" y="225" type="line" smooth="yes"/>
      <point x="463" y="124"/>
      <point x="402" y="83"/>
      <point x="311" y="83" type="curve" smooth="yes"/>
      <point x="220" y="83"/>
      <point x="159" y="124"/>
      <point x="159" y="225" type="curve" smooth="yes"/>
      <point x="159" y="700" type="line"/>
      <point x="51" y="700" type="line"/>
      <point x="50" y="225" type="line" smooth="yes"/>
      <point x="50" y="64"/>
      <point x="162" y="-12"/>
      <point x="311" y="-12" type="curve" smooth="yes"/>
      <point x="460" y="-12"/>
      <point x="572" y="64"/>
      <point x="572" y="225" type="curve" smooth="yes"/>
    </contour>
    <contour>
      <point x="311" y="-12" type="move" name="ogonek"/>
    </contour>
    <contour>
      <point x="311" y="700" type="move" name="top"/>
    </contour>
  </outline>
</glyph>
<glyph name="W" format="1">
  <advance width="822"/>
  <unicode hex="0057"/>
  <outline>
    <contour>
      <point x="179" y="0" type="line"/>
      <point x="277" y="0" type="line"/>
      <point x="131" y="700" type="line"/>
      <point x="23" y="700" type="line"/>
    </contour>
    <contour>
      <point x="362" y="690" type="line"/>
      <point x="189" y="0" type="line"/>
      <point x="287" y="0" type="line"/>
      <point x="453" y="690" type="line"/>
    </contour>
    <contour>
      <point x="531" y="0" type="line"/>
      <point x="629" y="0" type="line"/>
      <point x="456" y="690" type="line"/>
      <point x="365" y="690" type="line"/>
    </contour>
    <contour>
      <point x="691" y="700" type="line"/>
      <point x="541" y="0" type="line"/>
      <point x="639" y="0" type="line"/>
      <point x="799" y="700" type="line"/>
    </contour>
    <contour>
      <point x="411" y="700" type="move" name="top"/>
    </contour>
  </outline>
</glyph>
<glyph name="Y" format="1">
  <advance width="649"/>
  <unicode hex="0059"/>
  <outline>
    <contour>
      <point x="15" y="700" type="line"/>
      <point x="128" y="700" type="line"/>
      <point x="370" y="330" type="line"/>
      <point x="270" y="307" type="line"/>
    </contour>
    <contour>
      <point x="521" y="700" type="line"/>
      <point x="634" y="700" type="line"/>
      <point x="378" y="307" type="line"/>
      <point x="278" y="330" type="line"/>
    </contour>
    <contour>
      <point x="378" y="0" type="line"/>
      <point x="270" y="0" type="line"/>
      <point x="270" y="339" type="line"/>
      <point x="378" y="339" type="line"/>
    </contour>
    <contour>
      <point x="325" y="700" type="move" name="top"/>
    </contour>
  </outline>
</glyph>
<glyph name="Z" format="1">
  <advance width="555"/>
  <unicode hex="005A"/>
  <outline>
    <contour>
      <point x="545" y="592" type="line"/>
      <point x="489" y="696" type="line"/>
      <point x="10" y="108" type="line"/>
      <point x="79" y="21" type="line"/>
    </contour>
    <contour>
      <point x="545" y="592" type="line"/>
      <point x="545" y="700" type="line"/>
      <point x="33" y="700" type="line"/>
      <point x="33" y="592" type="line"/>
    </contour>
    <contour>
      <point x="541" y="0" type="line"/>
      <point x="541" y="108" type="line"/>
      <point x="10" y="108" type="line"/>
      <point x="10" y="0" type="line"/>
    </contour>
    <contour>
      <point x="278" y="700" type="move" name="top"/>
    </contour>
  </outline>
</glyph>
<glyph name="backslash" format="1">
  <advance width="600"/>
  <unicode hex="005C"/>
  <outline>
    <contour>
      <point x="366" y="-119" type="line"/>
      <point x="471" y="-119" type="line"/>
      <point x="221" y="724" type="line"/>
      <point x="116" y="724" type="line"/>
    </contour>
  </outline>
</glyph>
<glyph name="a" format="1">
  <advance width="526"/>
  <unicode hex="0061"/>
  <outline>
    <contour>
      <point x="155" y="510"/>
      <point x="53" y="429"/>
      <point x="73" y="338" type="curve"/>
      <point x="192" y="337" type="line"/>
      <point x="187" y="349"/>
      <point x="192" y="427"/>
      <point x="281" y="427" type="curve" smooth="yes"/>
      <point x="362" y="427"/>
      <point x="378" y="395"/>
      <point x="378" y="321" type="curve"/>
      <point x="378" y="0" type="line"/>
      <point x="486" y="0" type="line"/>
      <point x="486" y="313" type="line"/>
      <point x="486" y="394"/>
      <point x="468" y="510"/>
      <point x="277" y="510" type="curve" smooth="yes"/>
    </contour>
    <contour>
      <point x="384" y="337"/>
      <point x="340" y="300"/>
      <point x="239" y="290" type="curve" smooth="yes"/>
      <point x="83" y="274"/>
      <point x="30" y="216"/>
      <point x="30" y="140" type="curve" smooth="yes"/>
      <point x="30" y="49"/>
      <point x="97" y="-12"/>
      <point x="219" y="-12" type="curve" smooth="yes"/>
      <point x="361" y="-12"/>
      <point x="417" y="103"/>
      <point x="417" y="198" type="curve"/>
      <point x="378" y="228" type="line"/>
      <point x="378" y="112"/>
      <point x="309" y="65"/>
      <point x="233" y="65" type="curve" smooth="yes"/>
      <point x="162" y="65"/>
      <point x="143" y="112"/>
      <point x="143" y="145" type="curve" smooth="yes"/>
      <point x="143" y="188"/>
      <point x="185" y="215"/>
      <point x="244" y="222" type="curve" smooth="yes"/>
      <point x="344" y="234"/>
      <point x="430" y="276"/>
      <point x="430" y="367" type="curve"/>
      <point x="372" y="378" type="line"/>
    </contour>
  </outline>
</glyph>
<glyph name="b" format="1">
  <advance width="583"/>
  <unicode hex="0062"/>
  <outline>
    <contour>
      <point x="131" y="512"/>
      <point x="89" y="359"/>
      <point x="89" y="252" type="curve" smooth="yes"/>
      <point x="89" y="144"/>
      <point x="131" y="-10"/>
      <point x="294" y="-10" type="curve" smooth="yes"/>
      <point x="444" y="-10"/>
      <point x="543" y="104"/>
      <point x="543" y="252" type="curve" smooth="yes"/>
      <point x="543" y="399"/>
      <point x="444" y="512"/>
      <point x="294" y="512" type="curve" smooth="yes"/>
    </contour>
    <contour>
      <point x="40" y="700" type="line"/>
      <point x="41" y="0" type="line"/>
      <point x="149" y="0" type="line"/>
      <point x="149" y="141" type="line"/>
      <point x="121" y="246" type="line"/>
      <point x="149" y="374" type="line"/>
      <point x="149" y="700" type="line"/>
    </contour>
    <contour>
      <point x="378" y="417"/>
      <point x="434" y="345"/>
      <point x="434" y="252" type="curve" smooth="yes"/>
      <point x="434" y="157"/>
      <point x="378" y="86"/>
      <point x="294" y="86" type="curve" smooth="yes"/>
      <point x="207" y="86"/>
      <point x="138" y="147"/>
      <point x="138" y="252" type="curve" smooth="yes"/>
      <point x="138" y="355"/>
      <point x="207" y="417"/>
      <point x="294" y="417" type="curve" smooth="yes"/>
    </contour>
  </outline>
</glyph>
<glyph name="c" format="1">
  <advance width="569"/>
  <unicode hex="0063"/>
  <outline>
    <contour>
      <point x="535" y="371" type="line"/>
      <point x="504" y="459"/>
      <point x="423" y="511"/>
      <point x="304" y="511" type="curve" smooth="yes"/>
      <point x="148" y="511"/>
      <point x="30" y="417"/>
      <point x="30" y="245" type="curve" smooth="yes"/>
      <point x="30" y="74"/>
      <point x="158" y="-12"/>
      <point x="297" y="-12" type="curve" smooth="yes"/>
      <point x="422" y="-12"/>
      <point x="507" y="48.587"/>
      <point x="539" y="151.587" type="curve"/>
      <point x="441" y="191" type="line"/>
      <point x="421" y="132"/>
      <point x="388" y="79"/>
      <point x="297" y="79" type="curve" smooth="yes"/>
      <point x="216" y="79"/>
      <point x="140" y="134"/>
      <point x="140" y="245" type="curve" smooth="yes"/>
      <point x="140" y="355"/>
      <point x="203" y="422"/>
      <point x="304" y="422" type="curve" smooth="yes"/>
      <point x="371" y="422"/>
      <point x="416" y="382"/>
      <point x="443" y="320" type="curve"/>
    </contour>
    <contour>
      <point x="275" y="500" type="move" name="top"/>
    </contour>
    <contour>
      <point x="289" y="0" type="move" name="bottom"/>
    </contour>
  </outline>
</glyph>
<glyph name="d" format="1">
  <advance width="578"/>
  <unicode hex="0064"/>
  <outline>
    <contour>
      <point x="119" y="512"/>
      <point x="20" y="399"/>
      <point x="20" y="252" type="curve" smooth="yes"/>
      <point x="20" y="104"/>
      <point x="119" y="-10"/>
      <point x="269" y="-10" type="curve" smooth="yes"/>
      <point x="432" y="-10"/>
      <point x="474" y="144"/>
      <point x="474" y="252" type="curve" smooth="yes"/>
      <point x="474" y="359"/>
      <point x="432" y="512"/>
      <point x="269" y="512" type="curve" smooth="yes"/>
    </contour>
    <contour>
      <point x="356" y="417"/>
      <point x="425" y="355"/>
      <point x="425" y="252" type="curve" smooth="yes"/>
      <point x="425" y="147"/>
      <point x="356" y="86"/>
      <point x="269" y="86" type="curve" smooth="yes"/>
      <point x="185" y="86"/>
      <point x="129" y="157"/>
      <point x="129" y="252" type="curve" smooth="yes"/>
      <point x="129" y="345"/>
      <point x="185" y="417"/>
      <point x="269" y="417" type="curve" smooth="yes"/>
    </contour>
    <contour>
      <point x="414" y="700" type="line"/>
      <point x="414" y="374" type="line"/>
      <point x="442" y="246" type="line"/>
      <point x="414" y="141" type="line"/>
      <point x="414" y="0" type="line"/>
      <point x="522" y="0" type="line"/>
      <point x="523" y="700" type="line"/>
    </contour>
    <contour>
      <point x="282" y="250" type="move" name="center"/>
    </contour>
    <contour>
      <point x="543" y="500" type="move" name="topright"/>
    </contour>
  </outline>
</glyph>
<glyph name="e" format="1">
  <advance width="607"/>
  <unicode hex="0065"/>
  <outline>
    <contour>
      <point x="145" y="511"/>
      <point x="30" y="417"/>
      <point x="30" y="255" type="curve" smooth="yes"/>
      <point x="30" y="74"/>
      <point x="158" y="-12"/>
      <point x="297" y="-12" type="curve" smooth="yes"/>
      <point x="416" y="-12"/>
      <point x="496" y="34"/>
      <point x="542" y="116" type="curve"/>
      <point x="443" y="163" type="line"/>
      <point x="419" y="120"/>
      <point x="380" y="79"/>
      <point x="297" y="79" type="curve" smooth="yes"/>
      <point x="216" y="79"/>
      <point x="142" y="134"/>
      <point x="142" y="255" type="curve" smooth="yes"/>
      <point x="142" y="355"/>
      <point x="200" y="422"/>
      <point x="291" y="422" type="curve" smooth="yes"/>
      <point x="386" y="422"/>
      <point x="424" y="358"/>
      <point x="414" y="299" type="curve"/>
      <point x="90" y="299" type="line"/>
      <point x="90" y="224" type="line"/>
      <point x="519" y="224" type="line"/>
      <point x="556" y="399"/>
      <point x="460" y="511"/>
      <point x="291" y="511" type="curve" smooth="yes"/>
    </contour>
    <contour>
      <point x="511" y="10" type="move" name="ogonek"/>
    </contour>
    <contour>
      <point x="289" y="0" type="move" name="bottom"/>
    </contour>
    <contour>
      <point x="289" y="500" type="move" name="top"/>
    </contour>
  </outline>
</glyph>
<glyph name="g" format="1">
  <advance width="568"/>
  <unicode hex="0067"/>
  <outline>
    <contour>
      <point x="523" y="-3" type="line"/>
      <point x="523" y="-174"/>
      <point x="411" y="-260"/>
      <point x="272" y="-260" type="curve" smooth="yes"/>
      <point x="121" y="-260"/>
      <point x="55" y="-183"/>
      <point x="32" y="-95" type="curve"/>
      <point x="137" y="-72" type="line"/>
      <point x="154" y="-118"/>
      <point x="179" y="-165"/>
      <point x="272" y="-165" type="curve" smooth="yes"/>
      <point x="353" y="-165"/>
      <point x="414" y="-114"/>
      <point x="414" y="-3" type="curve" smooth="yes"/>
      <point x="414" y="126" type="line"/>
      <point x="442" y="254" type="line"/>
      <point x="414" y="359" type="line"/>
      <point x="414" y="500" type="line"/>
      <point x="522" y="500" type="line"/>
    </contour>
    <contour>
      <point x="432" y="510"/>
      <point x="474" y="356"/>
      <point x="474" y="248" type="curve" smooth="yes"/>
      <point x="474" y="141"/>
      <point x="432" y="-12"/>
      <point x="269" y="-12" type="curve" smooth="yes"/>
      <point x="119" y="-12"/>
      <point x="20" y="101"/>
      <point x="20" y="248" type="curve" smooth="yes"/>
      <point x="20" y="396"/>
      <point x="119" y="510"/>
      <point x="269" y="510" type="curve" smooth="yes"/>
    </contour>
    <contour>
      <point x="185" y="414"/>
      <point x="129" y="343"/>
      <point x="129" y="248" type="curve" smooth="yes"/>
      <point x="129" y="155"/>
      <point x="185" y="83"/>
      <point x="269" y="83" type="curve" smooth="yes"/>
      <point x="356" y="83"/>
      <point x="425" y="145"/>
      <point x="425" y="248" type="curve" smooth="yes"/>
      <point x="425" y="353"/>
      <point x="356" y="414"/>
      <point x="269" y="414" type="curve" smooth="yes"/>
    </contour>
    <contour>
      <point x="282" y="500" type="move" name="top"/>
    </contour>
  </outline>
</glyph>
<glyph name="h" format="1">
  <advance width="571"/>
  <unicode hex="0068"/>
  <outline>
    <contour>
      <point x="526" y="296" type="line"/>
      <point x="526" y="397"/>
      <point x="486" y="507"/>
      <point x="318" y="507" type="curve" smooth="yes"/>
      <point x="183" y="507"/>
      <point x="90" y="374"/>
      <point x="113" y="238" type="curve"/>
      <point x="147.993" y="238" type="line"/>
      <point x="147.993" y="363"/>
      <point x="238" y="415"/>
      <point x="307" y="415" type="curve" smooth="yes"/>
      <point x="390" y="415"/>
      <point x="418" y="364"/>
      <point x="418" y="296" type="curve"/>
      <point x="418" y="0" type="line"/>
      <point x="526" y="0" type="line"/>
    </contour>
    <contour>
      <point x="148" y="700" type="line"/>
      <point x="40" y="700" type="line"/>
      <point x="40" y="0" type="line"/>
      <point x="148" y="0" type="line"/>
    </contour>
    <contour>
      <point x="276" y="250" type="move" name="center"/>
    </contour>
    <contour>
      <point x="276" y="500" type="move" name="top"/>
    </contour>
  </outline>
</glyph>
<glyph name="j" format="1">
  <advance width="248"/>
  <unicode hex="006A"/>
  <outline>
    <contour>
      <point x="70" y="500" type="line"/>
      <point x="70" y="-63" type="line"/>
      <point x="70" y="-114"/>
      <point x="54" y="-172"/>
      <point x="-15" y="-172" type="curve" smooth="yes"/>
      <point x="-64" y="-172"/>
      <point x="-101" y="-130"/>
      <point x="-107" y="-108" type="curve"/>
      <point x="-195" y="-171" type="line"/>
      <point x="-168" y="-208"/>
      <point x="-122" y="-260"/>
      <point x="-15" y="-260" type="curve" smooth="yes"/>
      <point x="153" y="-260"/>
      <point x="178" y="-124"/>
      <point x="178" y="-63" type="curve"/>
      <point x="178" y="500" type="line"/>
    </contour>
    <contour>
      <point x="70" y="700" type="line"/>
      <point x="70" y="592" type="line"/>
      <point x="178" y="592" type="line"/>
      <point x="178" y="700" type="line"/>
    </contour>
  </outline>
</glyph>
<glyph name="k" format="1">
  <advance width="511"/>
  <unicode hex="006B"/>
  <outline>
    <contour>
      <point x="325" y="500" type="line"/>
      <point x="58" y="216" type="line"/>
      <point x="96" y="122" type="line"/>
      <point x="462" y="500" type="line"/>
    </contour>
    <contour>
      <point x="40" y="700" type="line"/>
      <point x="40" y="0" type="line"/>
      <point x="148" y="0" type="line"/>
      <point x="148" y="700" type="line"/>
    </contour>
    <contour>
      <point x="182" y="311" type="line"/>
      <point x="387" y="0" type="line"/>
      <point x="515" y="0" type="line"/>
      <point x="272" y="370" type="line"/>
    </contour>
    <contour>
      <point x="256" y="0" type="move" name="bottom"/>
    </contour>
  </outline>
</glyph>
<glyph name="l" format="1">
  <advance width="228"/>
  <unicode hex="006C"/>
  <outline>
    <contour>
      <point x="168" y="700" type="line"/>
      <point x="60" y="700" type="line"/>
      <point x="60" y="0" type="line"/>
      <point x="168" y="0" type="line"/>
    </contour>
    <contour>
      <point x="114" y="500" type="move" name="top"/>
    </contour>
    <contour>
      <point x="114" y="0" type="move" name="bottom"/>
    </contour>
    <contour>
      <point x="218" y="500" type="move" name="topright"/>
    </contour>
  </outline>
</glyph>
<glyph name="m" format="1">
  <advance width="926"/>
  <unicode hex="006D"/>
  <outline>
    <contour>
      <point x="512" y="296" type="line"/>
      <point x="512" y="397"/>
      <point x="471" y="510"/>
      <point x="306" y="510" type="curve" smooth="yes"/>
      <point x="164" y="510"/>
      <point x="92" y="374"/>
      <point x="115" y="238" type="curve"/>
      <point x="148" y="238" type="line"/>
      <point x="148" y="363"/>
      <point x="228" y="415"/>
      <point x="295" y="415" type="curve" smooth="yes"/>
      <point x="377" y="415"/>
      <point x="404" y="364"/>
      <point x="404" y="296" type="curve"/>
      <point x="404" y="0" type="line"/>
      <point x="512" y="0" type="line"/>
    </contour>
    <contour>
      <point x="148" y="500" type="line"/>
      <point x="40" y="500" type="line"/>
      <point x="40" y="0" type="line"/>
      <point x="148" y="0" type="line"/>
    </contour>
    <contour>
      <point x="881" y="296" type="line"/>
      <point x="881" y="397"/>
      <point x="841" y="510"/>
      <point x="673" y="510" type="curve" smooth="yes"/>
      <point x="528" y="510"/>
      <point x="436" y="374"/>
      <point x="459" y="238" type="curve"/>
      <point x="512" y="238" type="line"/>
      <point x="512" y="363"/>
      <point x="593" y="415"/>
      <point x="662" y="415" type="curve" smooth="yes"/>
      <point x="745" y="415"/>
      <point x="773" y="364"/>
      <point x="773" y="296" type="curve"/>
      <point x="773" y="0" type="line"/>
      <point x="881" y="0" type="line"/>
    </contour>
  </outline>
</glyph>
<glyph name="o" format="1">
  <advance width="568.968"/>
  <unicode hex="006F"/>
  <outline>
    <contour>
      <point x="434.908" y="-12"/>
      <point x="538.968" y="102"/>
      <point x="538.968" y="247" type="curve" smooth="yes"/>
      <point x="538.968" y="393"/>
      <point x="434.908" y="510"/>
      <point x="284.484" y="510" type="curve" smooth="yes"/>
      <point x="134.060" y="510"/>
      <point x="30" y="393"/>
      <point x="30" y="247" type="curve" smooth="yes"/>
      <point x="30" y="102"/>
      <point x="134.060" y="-12"/>
      <point x="284.484" y="-12" type="curve" smooth="yes"/>
    </contour>
    <contour>
      <point x="196.199" y="77"/>
      <point x="136.292" y="148"/>
      <point x="136.292" y="247" type="curve" smooth="yes"/>
      <point x="136.292" y="347"/>
      <point x="196.199" y="418"/>
      <point x="284.484" y="418" type="curve" smooth="yes"/>
      <point x="372.769" y="418"/>
      <point x="432.676" y="347"/>
      <point x="432.676" y="247" type="curve" smooth="yes"/>
      <point x="432.676" y="148"/>
      <point x="372.769" y="77"/>
      <point x="284.484" y="77" type="curve" smooth="yes"/>
    </contour>
    <contour>
      <point x="274.484" y="500" type="move" name="top"/>
    </contour>
  </outline>
</glyph>
<glyph name="p" format="1">
  <advance width="573"/>
  <unicode hex="0070"/>
  <outline>
    <contour>
      <point x="131" y="510"/>
      <point x="89" y="356"/>
      <point x="89" y="248" type="curve" smooth="yes"/>
      <point x="89" y="141"/>
      <point x="131" y="-12"/>
      <point x="294" y="-12" type="curve" smooth="yes"/>
      <point x="444" y="-12"/>
      <point x="543" y="101"/>
      <point x="543" y="248" type="curve" smooth="yes"/>
      <point x="543" y="396"/>
      <point x="444" y="510"/>
      <point x="294" y="510" type="curve" smooth="yes"/>
    </contour>
    <contour>
      <point x="41" y="500" type="line"/>
      <point x="40" y="-200" type="line"/>
      <point x="149" y="-200" type="line"/>
      <point x="149" y="126" type="line"/>
      <point x="121" y="254" type="line"/>
      <point x="149" y="359" type="line"/>
      <point x="149" y="500" type="line"/>
    </contour>
    <contour>
      <point x="378" y="414"/>
      <point x="434" y="343"/>
      <point x="434" y="248" type="curve" smooth="yes"/>
      <point x="434" y="155"/>
      <point x="378" y="83"/>
      <point x="294" y="83" type="curve" smooth="yes"/>
      <point x="207" y="83"/>
      <point x="138" y="145"/>
      <point x="138" y="248" type="curve" smooth="yes"/>
      <point x="138" y="353"/>
      <point x="207" y="414"/>
      <point x="294" y="414" type="curve" smooth="yes"/>
    </contour>
  </outline>
</glyph>
<glyph name="q" format="1">
  <advance width="563"/>
  <unicode hex="0071"/>
  <outline>
    <contour>
      <point x="119" y="510"/>
      <point x="20" y="396"/>
      <point x="20" y="248" type="curve" smooth="yes"/>
      <point x="20" y="101"/>
      <point x="119" y="-12"/>
      <point x="269" y="-12" type="curve" smooth="yes"/>
      <point x="432" y="-12"/>
      <point x="474" y="141"/>
      <point x="474" y="248" type="curve" smooth="yes"/>
      <point x="474" y="356"/>
      <point x="432" y="510"/>
      <point x="269" y="510" type="curve" smooth="yes"/>
    </contour>
    <contour>
      <point x="356" y="414"/>
      <point x="425" y="353"/>
      <point x="425" y="248" type="curve" smooth="yes"/>
      <point x="425" y="145"/>
      <point x="356" y="83"/>
      <point x="269" y="83" type="curve" smooth="yes"/>
      <point x="185" y="83"/>
      <point x="129" y="155"/>
      <point x="129" y="248" type="curve" smooth="yes"/>
      <point x="129" y="343"/>
      <point x="185" y="414"/>
      <point x="269" y="414" type="curve" smooth="yes"/>
    </contour>
    <contour>
      <point x="414" y="500" type="line"/>
      <point x="414" y="359" type="line"/>
      <point x="442" y="254" type="line"/>
      <point x="414" y="126" type="line"/>
      <point x="414" y="-200" type="line"/>
      <point x="523" y="-200" type="line"/>
      <point x="522" y="500" type="line"/>
    </contour>
  </outline>
</glyph>
<glyph name="r" format="1">
  <advance width="464.533"/>
  <unicode hex="0072"/>
  <outline>
    <contour>
      <point x="171" y="510"/>
      <point x="101" y="374"/>
      <point x="124" y="238" type="curve"/>
      <point x="148" y="238" type="line"/>
      <point x="148" y="363"/>
      <point x="219" y="415"/>
      <point x="277" y="415" type="curve" smooth="yes"/>
      <point x="326" y="415"/>
      <point x="350" y="384"/>
      <point x="348" y="338" type="curve"/>
      <point x="454" y="338" type="line"/>
      <point x="460" y="426"/>
      <point x="416" y="510"/>
      <point x="288" y="510" type="curve" smooth="yes"/>
    </contour>
    <contour>
      <point x="40" y="500" type="line"/>
      <point x="40" y="0" type="line"/>
      <point x="148" y="0" type="line"/>
      <point x="148" y="500" type="line"/>
    </contour>
  </outline>
</glyph>
<glyph name="s" format="1">
  <advance width="441"/>
  <unicode hex="0073"/>
  <outline>
    <contour>
      <point x="138" y="75"/>
      <point x="93" y="131"/>
      <point x="83" y="190" type="curve"/>
      <point x="10" y="129" type="line"/>
      <point x="35" y="40"/>
      <point x="120" y="-12"/>
      <point x="214" y="-12" type="curve" smooth="yes"/>
      <point x="346" y="-12"/>
      <point x="411" y="65"/>
      <point x="411" y="149" type="curve" smooth="yes"/>
      <point x="411" y="257"/>
      <point x="286" y="289"/>
      <point x="226" y="307" type="curve" smooth="yes"/>
      <point x="165" y="325"/>
      <point x="142" y="348"/>
      <point x="142" y="375" type="curve" smooth="yes"/>
      <point x="142" y="405"/>
      <point x="168" y="430"/>
      <point x="212" y="430" type="curve" smooth="yes"/>
      <point x="247" y="430"/>
      <point x="278" y="414"/>
      <point x="290" y="371" type="curve"/>
      <point x="379" y="409" type="line"/>
      <point x="359" y="477"/>
      <point x="292" y="511"/>
      <point x="212" y="511" type="curve" smooth="yes"/>
      <point x="120" y="511"/>
      <point x="43" y="457"/>
      <point x="43" y="375" type="curve" smooth="yes"/>
      <point x="43" y="285"/>
      <point x="116" y="253"/>
      <point x="196" y="229" type="curve" smooth="yes"/>
      <point x="268" y="207"/>
      <point x="308" y="191"/>
      <point x="308" y="151" type="curve" smooth="yes"/>
      <point x="308" y="107"/>
      <point x="272" y="75"/>
      <point x="214" y="75" type="curve" smooth="yes"/>
    </contour>
    <contour>
      <point x="221" y="500" type="move" name="top"/>
    </contour>
    <contour>
      <point x="221" y="0" type="move" name="bottom"/>
    </contour>
  </outline>
</glyph>
<glyph name="t" format="1">
  <advance width="459"/>
  <unicode hex="0074"/>
  <outline>
    <contour>
      <point x="366" y="145" type="line"/>
      <point x="352" y="117"/>
      <point x="331" y="77"/>
      <point x="282" y="77" type="curve" smooth="yes"/>
      <point x="234" y="77"/>
      <point x="208" y="109"/>
      <point x="208" y="157" type="curve"/>
      <point x="208" y="700" type="line"/>
      <point x="100" y="700" type="line"/>
      <point x="100" y="155" type="line"/>
      <point x="100" y="64"/>
      <point x="146" y="-12"/>
      <point x="282" y="-12" type="curve" smooth="yes"/>
      <point x="370" y="-12"/>
      <point x="418" y="38"/>
      <point x="449" y="97" type="curve"/>
    </contour>
    <contour>
      <point x="360" y="500" type="line"/>
      <point x="10" y="500" type="line"/>
      <point x="10" y="400" type="line"/>
      <point x="360" y="400" type="line"/>
    </contour>
    <contour>
      <point x="230" y="250" type="move" name="center"/>
    </contour>
    <contour>
      <point x="230" y="0" type="move" name="bottom"/>
    </contour>
    <contour>
      <point x="439" y="500" type="move" name="topright"/>
    </contour>
  </outline>
</glyph>
<glyph name="u" format="1">
  <advance width="576"/>
  <unicode hex="0075"/>
  <outline>
    <contour>
      <point x="40" y="204" type="line"/>
      <point x="40" y="103"/>
      <point x="80" y="-7"/>
      <point x="248" y="-7" type="curve" smooth="yes"/>
      <point x="383" y="-7"/>
      <point x="472" y="89"/>
      <point x="443" y="262" type="curve"/>
      <point x="408" y="262" type="line"/>
      <point x="408" y="115"/>
      <point x="328" y="85"/>
      <point x="259" y="85" type="curve" smooth="yes"/>
      <point x="176" y="85"/>
      <point x="148" y="136"/>
      <point x="148" y="204" type="curve"/>
      <point x="148" y="500" type="line"/>
      <point x="40" y="500" type="line"/>
    </contour>
    <contour>
      <point x="408" y="0" type="line"/>
      <point x="516" y="0" type="line"/>
      <point x="516" y="500" type="line"/>
      <point x="408" y="500" type="line"/>
    </contour>
    <contour>
      <point x="500" y="10" type="move" name="ogonek"/>
    </contour>
    <contour>
      <point x="278" y="500" type="move" name="top"/>
    </contour>
  </outline>
</glyph>
<glyph name="v" format="1">
  <advance width="546"/>
  <unicode hex="0076"/>
  <outline>
    <contour>
      <point x="319" y="0" type="line"/>
      <point x="211" y="0" type="line"/>
      <point x="10" y="500" type="line"/>
      <point x="118" y="500" type="line"/>
    </contour>
    <contour>
      <point x="335" y="0" type="line"/>
      <point x="227" y="0" type="line"/>
      <point x="428" y="500" type="line"/>
      <point x="536" y="500" type="line"/>
    </contour>
  </outline>
</glyph>
<glyph name="w" format="1">
  <advance width="706"/>
  <unicode hex="0077"/>
  <outline>
    <contour>
      <point x="128" y="500" type="line"/>
      <point x="261" y="0" type="line"/>
      <point x="163" y="0" type="line"/>
      <point x="20" y="500" type="line"/>
    </contour>
    <contour>
      <point x="400" y="500" type="line"/>
      <point x="533" y="0" type="line"/>
      <point x="435" y="0" type="line"/>
      <point x="353" y="325" type="line"/>
      <point x="271" y="0" type="line"/>
      <point x="173" y="0" type="line"/>
      <point x="306" y="500" type="line"/>
    </contour>
    <contour>
      <point x="686" y="500" type="line"/>
      <point x="543" y="0" type="line"/>
      <point x="445" y="0" type="line"/>
      <point x="578" y="500" type="line"/>
    </contour>
    <contour>
      <point x="350.413" y="500" type="move" name="top"/>
    </contour>
  </outline>
</glyph>
<glyph name="x" format="1">
  <advance width="590"/>
  <unicode hex="0078"/>
  <outline>
    <contour>
      <point x="420" y="500" type="line"/>
      <point x="256" y="291" type="line"/>
      <point x="236" y="275" type="line"/>
      <point x="20" y="0" type="line"/>
      <point x="158" y="0" type="line"/>
      <point x="309" y="192" type="line"/>
      <point x="331" y="211" type="line"/>
      <point x="558" y="500" type="line"/>
    </contour>
    <contour>
      <point x="561" y="0" type="line"/>
      <point x="175" y="500" type="line"/>
      <point x="40" y="500" type="line"/>
      <point x="424" y="0" type="line"/>
    </contour>
  </outline>
</glyph>
<glyph name="y" format="1">
  <advance width="532"/>
  <unicode hex="0079"/>
  <outline>
    <contour>
      <point x="409" y="500" type="line"/>
      <point x="122" y="-200" type="line"/>
      <point x="236" y="-200" type="line"/>
      <point x="522" y="500" type="line"/>
    </contour>
    <contour>
      <point x="15" y="500" type="line"/>
      <point x="232" y="60" type="line"/>
      <point x="340" y="80" type="line"/>
      <point x="139" y="500" type="line"/>
    </contour>
    <contour>
      <point x="266" y="500" type="move" name="top"/>
    </contour>
  </outline>
</glyph>
<glyph name="z" format="1">
  <advance width="489"/>
  <unicode hex="007A"/>
  <outline>
    <contour>
      <point x="451" y="500" type="line"/>
      <point x="411" y="500" type="line"/>
      <point x="20" y="100" type="line"/>
      <point x="20" y="0" type="line"/>
      <point x="60" y="0" type="line"/>
      <point x="451" y="400" type="line"/>
    </contour>
    <contour>
      <point x="469" y="100" type="line"/>
      <point x="80" y="100" type="line"/>
      <point x="50" y="0" type="line"/>
      <point x="469" y="0" type="line"/>
    </contour>
    <contour>
      <point x="411" y="500" type="line"/>
      <point x="35" y="500" type="line"/>
      <point x="35" y="400" type="line"/>
      <point x="381" y="400" type="line"/>
    </contour>
    <contour>
      <point x="245" y="500" type="move" name="top"/>
    </contour>
  </outline>
</glyph>
<glyph name="cent" format="1">
  <advance width="549"/>
  <unicode hex="00A2"/>
  <outline>
    <contour>
      <point x="347" y="700" type="line"/>
      <point x="232" y="700" type="line"/>
      <point x="232" y="3" type="line"/>
      <point x="347" y="3" type="line"/>
    </contour>
    <component base="c" yOffset="97"/>
    <contour>
      <point x="275" y="500" type="move" name="top"/>
    </contour>
    <contour>
      <point x="275" y="0" type="move" name="bottom"/>
    </contour>
  </outline>
</glyph>
<glyph name="currency" format="1">
  <advance width="600"/>
  <unicode hex="00A4"/>
  <outline>
    <contour>
      <point x="505.549" y="88.009" type="line"/>
      <point x="578.078" y="162.545" type="line"/>
      <point x="509.899" y="228.889" type="line"/>
      <point x="437.369" y="154.354" type="line"/>
    </contour>
    <contour>
      <point x="43.601" y="162.659" type="line"/>
      <point x="115.893" y="87.895" type="line"/>
      <point x="185.995" y="155.678" type="line"/>
      <point x="113.702" y="230.443" type="line"/>
    </contour>
    <contour>
      <point x="447.244" y="105.587"/>
      <point x="554.238" y="212.581"/>
      <point x="554.238" y="346.507" type="curve"/>
      <point x="554.238" y="480.433"/>
      <point x="447.244" y="587.427"/>
      <point x="313.318" y="587.427" type="curve"/>
      <point x="179.393" y="587.427"/>
      <point x="72.398" y="480.433"/>
      <point x="72.398" y="346.507" type="curve"/>
      <point x="72.398" y="219.616"/>
      <point x="169.387" y="105.587"/>
      <point x="313.318" y="105.587" type="curve"/>
    </contour>
    <contour>
      <point x="221.821" y="193.963"/>
      <point x="160.773" y="263.997"/>
      <point x="160.773" y="346.507" type="curve"/>
      <point x="160.773" y="430.198"/>
      <point x="229.627" y="499.051"/>
      <point x="313.318" y="499.051" type="curve"/>
      <point x="397.010" y="499.051"/>
      <point x="465.864" y="430.198"/>
      <point x="465.864" y="346.507" type="curve"/>
      <point x="465.864" y="262.816"/>
      <point x="397.010" y="193.963"/>
      <point x="313.318" y="193.963" type="curve"/>
    </contour>
    <contour>
      <point x="433.139" y="541.979" type="line"/>
      <point x="505.527" y="467.307" type="line"/>
      <point x="578.008" y="537.570" type="line"/>
      <point x="505.620" y="612.242" type="line"/>
    </contour>
    <contour>
      <point x="119.955" y="463.224" type="line"/>
      <point x="192.484" y="537.760" type="line"/>
      <point x="116.011" y="612.174" type="line"/>
      <point x="43.482" y="537.639" type="line"/>
    </contour>
  </outline>
</glyph>
<glyph name="section" format="1">
  <advance width="592"/>
  <unicode hex="00A7"/>
  <outline>
    <contour>
      <point x="116" y="418"/>
      <point x="85" y="367"/>
      <point x="85" y="309" type="curve" smooth="yes"/>
      <point x="85" y="216"/>
      <point x="160" y="148"/>
      <point x="295" y="108" type="curve" smooth="yes"/>
      <point x="378" y="82"/>
      <point x="460" y="61"/>
      <point x="460" y="-10" type="curve" smooth="yes"/>
      <point x="460" y="-79"/>
      <point x="419" y="-128"/>
      <point x="316" y="-128" type="curve" smooth="yes"/>
      <point x="194" y="-128"/>
      <point x="144" y="-66"/>
      <point x="126" y="24" type="curve"/>
      <point x="25" y="-27" type="line"/>
      <point x="63" y="-140"/>
      <point x="149" y="-223"/>
      <point x="316" y="-223" type="curve" smooth="yes"/>
      <point x="491" y="-223"/>
      <point x="571" y="-123"/>
      <point x="571" y="-10" type="curve" smooth="yes"/>
      <point x="571" y="131"/>
      <point x="412" y="173"/>
      <point x="327" y="199" type="curve" smooth="yes"/>
      <point x="233" y="227"/>
      <point x="195" y="263"/>
      <point x="195" y="309" type="curve" smooth="yes"/>
      <point x="195" y="340"/>
      <point x="212" y="367"/>
      <point x="242" y="383" type="curve"/>
      <point x="166" y="451" type="line"/>
    </contour>
    <contour>
      <point x="178" y="708"/>
      <point x="80" y="628"/>
      <point x="80" y="525" type="curve" smooth="yes"/>
      <point x="80" y="432"/>
      <point x="155" y="364"/>
      <point x="290" y="324" type="curve" smooth="yes"/>
      <point x="373" y="298"/>
      <point x="455" y="277"/>
      <point x="455" y="206" type="curve" smooth="yes"/>
      <point x="455" y="175"/>
      <point x="447" y="148"/>
      <point x="428" y="127" type="curve"/>
      <point x="503" y="56" type="line"/>
      <point x="546" y="95"/>
      <point x="566" y="149"/>
      <point x="566" y="206" type="curve" smooth="yes"/>
      <point x="566" y="347"/>
      <point x="407" y="389"/>
      <point x="322" y="415" type="curve" smooth="yes"/>
      <point x="228" y="443"/>
      <point x="190" y="479"/>
      <point x="190" y="525" type="curve" smooth="yes"/>
      <point x="190" y="576"/>
      <point x="236" y="615"/>
      <point x="306" y="615" type="curve" smooth="yes"/>
      <point x="379" y="615"/>
      <point x="421" y="583"/>
      <point x="421" y="526" type="curve"/>
      <point x="529" y="554" type="line"/>
      <point x="514" y="657"/>
      <point x="416" y="708"/>
      <point x="306" y="708" type="curve" smooth="yes"/>
    </contour>
  </outline>
</glyph>
<glyph name="logicalnot" format="1">
  <advance width="667"/>
  <unicode hex="00AC"/>
  <outline>
    <contour>
      <point x="38" y="360" type="line"/>
      <point x="38" y="260" type="line"/>
      <point x="532" y="260" type="line"/>
      <point x="532" y="52" type="line"/>
      <point x="647" y="52" type="line"/>
      <point x="647" y="360" type="line"/>
    </contour>
  </outline>
</glyph>
<glyph name="macron" format="1">
  <advance width="600"/>
  <unicode hex="00AF"/>
  <outline>
    <contour>
      <point x="572" y="748" type="line"/>
      <point x="38" y="748" type="line"/>
      <point x="38" y="640" type="line"/>
      <point x="572" y="640" type="line"/>
    </contour>
    <contour>
      <point x="305" y="498" type="move" name="_top"/>
    </contour>
  </outline>
</glyph>
<glyph name="degree" format="1">
  <advance width="600"/>
  <unicode hex="00B0"/>
  <outline>
    <contour>
      <point x="193" y="818"/>
      <point x="115" y="740"/>
      <point x="115" y="644" type="curve" smooth="yes"/>
      <point x="115" y="547"/>
      <point x="193" y="469"/>
      <point x="290" y="469" type="curve" smooth="yes"/>
      <point x="386" y="469"/>
      <point x="464" y="547"/>
      <point x="464" y="644" type="curve" smooth="yes"/>
      <point x="464" y="740"/>
      <point x="386" y="818"/>
      <point x="290" y="818" type="curve" smooth="yes"/>
    </contour>
    <contour>
      <point x="337" y="728"/>
      <point x="374" y="691"/>
      <point x="374" y="644" type="curve" smooth="yes"/>
      <point x="374" y="596"/>
      <point x="337" y="559"/>
      <point x="290" y="559" type="curve" smooth="yes"/>
      <point x="242" y="559"/>
      <point x="205" y="596"/>
      <point x="205" y="644" type="curve" smooth="yes"/>
      <point x="205" y="691"/>
      <point x="242" y="728"/>
      <point x="290" y="728" type="curve" smooth="yes"/>
    </contour>
  </outline>
</glyph>
<glyph name="twosuperior" format="1">
  <advance width="472.525"/>
  <unicode hex="00B2"/>
  <outline>
    <contour>
      <point x="155" y="874"/>
      <point x="89" y="808"/>
      <point x="104" y="736" type="curve"/>
      <point x="209" y="746" type="line"/>
      <point x="206" y="778"/>
      <point x="216" y="797"/>
      <point x="256" y="797" type="curve" smooth="yes"/>
      <point x="295" y="797"/>
      <point x="307" y="767"/>
      <point x="307" y="737" type="curve" smooth="yes"/>
      <point x="305" y="616"/>
      <point x="128" y="551"/>
      <point x="90" y="479" type="curve"/>
      <point x="89" y="411" type="line"/>
      <point x="423" y="411" type="line"/>
      <point x="423" y="497" type="line"/>
      <point x="231" y="497" type="line"/>
      <point x="287" y="545"/>
      <point x="414" y="609"/>
      <point x="412" y="744" type="curve" smooth="yes"/>
      <point x="411" y="805"/>
      <point x="369" y="874"/>
      <point x="256" y="874" type="curve" smooth="yes"/>
    </contour>
  </outline>
</glyph>
<glyph name="threesuperior" format="1">
  <advance width="391"/>
  <unicode hex="00B3"/>
  <outline>
    <contour>
      <point x="42" y="861" type="line"/>
      <point x="42" y="784" type="line"/>
      <point x="216" y="784" type="line"/>
      <point x="108" y="668" type="line"/>
      <point x="153" y="615" type="line"/>
      <point x="175" y="620"/>
      <point x="184" y="623"/>
      <point x="197" y="623" type="curve" smooth="yes"/>
      <point x="231" y="623"/>
      <point x="256" y="600"/>
      <point x="256" y="550" type="curve" smooth="yes"/>
      <point x="256" y="500"/>
      <point x="226" y="476"/>
      <point x="191" y="476" type="curve" smooth="yes"/>
      <point x="146" y="476"/>
      <point x="122" y="497"/>
      <point x="125" y="560" type="curve"/>
      <point x="20" y="560" type="line"/>
      <point x="15" y="456"/>
      <point x="95" y="400"/>
      <point x="191" y="400" type="curve" smooth="yes"/>
      <point x="277" y="400"/>
      <point x="361" y="458"/>
      <point x="361" y="550" type="curve" smooth="yes"/>
      <point x="361" y="623"/>
      <point x="311" y="673"/>
      <point x="249" y="687" type="curve"/>
      <point x="353" y="793" type="line"/>
      <point x="353" y="861" type="line"/>
    </contour>
  </outline>
</glyph>
<glyph name="acute" format="1">
  <advance width="600"/>
  <unicode hex="00B4"/>
  <outline>
    <contour>
      <point x="158" y="592" type="line"/>
      <point x="246" y="565" type="line"/>
      <point x="403" y="663" type="line"/>
      <point x="342" y="764" type="line"/>
    </contour>
    <contour>
      <point x="281" y="499" type="move" name="_top"/>
    </contour>
  </outline>
</glyph>
<glyph name="cedilla" format="1">
  <advance width="600"/>
  <unicode hex="00B8"/>
  <outline>
    <contour>
      <point x="268" y="-31"/>
      <point x="218" y="-69"/>
      <point x="214" y="-90" type="curve"/>
      <point x="262" y="-90" type="line"/>
      <point x="267" y="-83"/>
      <point x="280" y="-73"/>
      <point x="302" y="-73" type="curve" smooth="yes"/>
      <point x="323" y="-73"/>
      <point x="334" y="-87"/>
      <point x="329" y="-110" type="curve" smooth="yes"/>
      <point x="324" y="-137"/>
      <point x="294" y="-151"/>
      <point x="263" y="-151" type="curve" smooth="yes"/>
      <point x="240" y="-151"/>
      <point x="195" y="-140"/>
      <point x="183" y="-130" type="curve"/>
      <point x="183" y="-196" type="line"/>
      <point x="190" y="-200"/>
      <point x="224" y="-208"/>
      <point x="251" y="-208" type="curve" smooth="yes"/>
      <point x="306" y="-208"/>
      <point x="377" y="-181"/>
      <point x="392" y="-112" type="curve" smooth="yes"/>
      <point x="401" y="-69"/>
      <point x="375" y="-31"/>
      <point x="310" y="-31" type="curve" smooth="yes"/>
    </contour>
    <contour>
      <point x="245" y="10" type="line"/>
      <point x="199" y="-90" type="line"/>
      <point x="262" y="-90" type="line"/>
      <point x="307" y="10" type="line"/>
    </contour>
    <contour>
      <point x="285" y="0" type="move" name="_bottom"/>
    </contour>
  </outline>
</glyph>
<glyph name="onequarter" format="1">
  <advance width="851"/>
  <unicode hex="00BC"/>
  <outline>
    <contour>
      <point x="166" y="0" type="line"/>
      <point x="48" y="0" type="line"/>
      <point x="626" y="749" type="line"/>
      <point x="744" y="749" type="line"/>
    </contour>
    <contour>
      <point x="727" y="400" type="line"/>
      <point x="538" y="169" type="line"/>
      <point x="811" y="169" type="line"/>
      <point x="811" y="89" type="line"/>
      <point x="412" y="89" type="line"/>
      <point x="413" y="160" type="line"/>
      <point x="652" y="455" type="line"/>
    </contour>
    <contour>
      <point x="652" y="455" type="line"/>
      <point x="636" y="417" type="line"/>
      <point x="636" y="0" type="line"/>
      <point x="741" y="0" type="line"/>
      <point x="741" y="455" type="line"/>
    </contour>
    <component base="onesuperior"/>
  </outline>
</glyph>
<glyph name="onehalf" format="1">
  <advance width="882"/>
  <unicode hex="00BD"/>
  <outline>
    <contour>
      <point x="48" y="0" type="line"/>
      <point x="166" y="0" type="line"/>
      <point x="744" y="749" type="line"/>
      <point x="626" y="749" type="line"/>
    </contour>
    <component base="onesuperior"/>
    <component base="twosuperior" xOffset="419" yOffset="-409"/>
  </outline>
</glyph>
<glyph name="AE" format="1">
  <advance width="1070"/>
  <unicode hex="00C6"/>
  <outline>
    <contour>
      <point x="590" y="232" type="line"/>
      <point x="590" y="326" type="line"/>
      <point x="239" y="326" type="line"/>
      <point x="198" y="232" type="line"/>
    </contour>
    <contour>
      <point x="548" y="700" type="line"/>
      <point x="422" y="700" type="line"/>
      <point x="24" y="0" type="line"/>
      <point x="152" y="0" type="line"/>
    </contour>
    <component base="E" xOffset="437"/>
    <contour>
      <point x="690" y="10" type="move" name="ogonek"/>
    </contour>
    <contour>
      <point x="392" y="700" type="move" name="top"/>
    </contour>
  </outline>
</glyph>
<glyph name="Thorn" format="1">
  <advance width="531"/>
  <unicode hex="00DE"/>
  <outline>
    <contour>
      <point x="128" y="597" type="line"/>
      <point x="128" y="499" type="line"/>
      <point x="291" y="499" type="line"/>
      <point x="360" y="499"/>
      <point x="403" y="469"/>
      <point x="403" y="400" type="curve" smooth="yes"/>
      <point x="403" y="331"/>
      <point x="361" y="298"/>
      <point x="288" y="298" type="curve"/>
      <point x="145" y="298" type="line"/>
      <point x="145" y="199" type="line"/>
      <point x="288" y="199" type="line"/>
      <point x="398" y="199"/>
      <point x="511" y="249"/>
      <point x="511" y="400" type="curve" smooth="yes"/>
      <point x="511" y="549"/>
      <point x="393" y="597"/>
      <point x="294" y="597" type="curve"/>
    </contour>
    <contour>
      <point x="50" y="700" type="line"/>
      <point x="50" y="0" type="line"/>
      <point x="158" y="0" type="line"/>
      <point x="158" y="700" type="line"/>
    </contour>
  </outline>
</glyph>
<glyph name="germandbls" format="1">
  <advance width="596"/>
  <unicode hex="00DF"/>
  <outline>
    <contour>
      <point x="153" y="523" type="line" smooth="yes"/>
      <point x="153" y="572"/>
      <point x="186" y="602"/>
      <point x="251" y="602" type="curve" smooth="yes"/>
      <point x="320" y="602"/>
      <point x="353" y="572"/>
      <point x="353" y="523" type="curve" smooth="yes"/>
      <point x="353" y="474"/>
      <point x="321" y="441"/>
      <point x="248" y="441" type="curve" smooth="yes"/>
      <point x="235" y="441" type="line"/>
      <point x="235" y="362" type="line"/>
      <point x="304" y="362" type="line" smooth="yes"/>
      <point x="402" y="362"/>
      <point x="467" y="313"/>
      <point x="467" y="222" type="curve" smooth="yes"/>
      <point x="467" y="135"/>
      <point x="405" y="98"/>
      <point x="299" y="98" type="curve" smooth="yes"/>
      <point x="260" y="98"/>
      <point x="209" y="117"/>
      <point x="193" y="128" type="curve"/>
      <point x="193" y="30" type="line"/>
      <point x="212" y="19"/>
      <point x="266" y="0"/>
      <point x="308" y="0" type="curve" smooth="yes"/>
      <point x="461" y="0"/>
      <point x="576" y="71"/>
      <point x="576" y="222" type="curve" smooth="yes"/>
      <point x="576" y="330"/>
      <point x="520" y="398"/>
      <point x="426" y="426" type="curve"/>
      <point x="448" y="452"/>
      <point x="461" y="486"/>
      <point x="461" y="533" type="curve" smooth="yes"/>
      <point x="461" y="662"/>
      <point x="360" y="700"/>
      <point x="251" y="700" type="curve" smooth="yes"/>
      <point x="138" y="700"/>
      <point x="45" y="662"/>
      <point x="45" y="531" type="curve" smooth="yes"/>
      <point x="45" y="0" type="line"/>
      <point x="153" y="0" type="line"/>
    </contour>
  </outline>
</glyph>
<glyph name="ae" format="1">
  <advance width="918"/>
  <unicode hex="00E6"/>
  <outline>
    <component base="a"/>
    <component base="e" xOffset="361"/>
    <contour>
      <point x="537" y="500" type="move" name="top"/>
    </contour>
  </outline>
</glyph>
<glyph name="eth" format="1">
  <advance width="573"/>
  <unicode hex="00F0"/>
  <outline>
    <contour>
      <point x="73" y="682" type="line"/>
      <point x="338" y="644"/>
      <point x="449" y="492"/>
      <point x="449" y="300" type="curve" smooth="yes"/>
      <point x="449" y="252"/>
      <point x="442" y="193"/>
      <point x="423" y="121" type="curve"/>
      <point x="493" y="123" type="line"/>
      <point x="504" y="167"/>
      <point x="520" y="116"/>
      <point x="541" y="216" type="curve" smooth="yes"/>
      <point x="549" y="253"/>
      <point x="552" y="289"/>
      <point x="552" y="323" type="curve" smooth="yes"/>
      <point x="552" y="578"/>
      <point x="359" y="755"/>
      <point x="73" y="783" type="curve"/>
    </contour>
    <contour>
      <point x="280" y="512"/>
      <point x="271" y="512"/>
      <point x="262" y="511" type="curve" smooth="yes"/>
      <point x="124" y="496"/>
      <point x="39" y="390"/>
      <point x="39" y="258" type="curve" smooth="yes"/>
      <point x="39" y="248"/>
      <point x="40" y="237"/>
      <point x="41" y="226" type="curve" smooth="yes"/>
      <point x="56" y="89"/>
      <point x="152" y="-10"/>
      <point x="286" y="-10" type="curve" smooth="yes"/>
      <point x="296" y="-10"/>
      <point x="306" y="-9"/>
      <point x="316" y="-8" type="curve" smooth="yes"/>
      <point x="468" y="8"/>
      <point x="544" y="150"/>
      <point x="544" y="257" type="curve" smooth="yes"/>
      <point x="544" y="358"/>
      <point x="446" y="512"/>
      <point x="288" y="512" type="curve" smooth="yes"/>
    </contour>
    <contour>
      <point x="445" y="388"/>
      <point x="445" y="245" type="curve" smooth="yes"/>
      <point x="445" y="154"/>
      <point x="386" y="95"/>
      <point x="306" y="87" type="curve" smooth="yes"/>
      <point x="301" y="86"/>
      <point x="296" y="86"/>
      <point x="290" y="86" type="curve" smooth="yes"/>
      <point x="208" y="86"/>
      <point x="149" y="160"/>
      <point x="149" y="262" type="curve" smooth="yes"/>
      <point x="149" y="343"/>
      <point x="194" y="409"/>
      <point x="272" y="416" type="curve" smooth="yes"/>
      <point x="334" y="422"/>
    </contour>
    <contour>
      <point x="120" y="624" type="line"/>
      <point x="164" y="573" type="line"/>
      <point x="373" y="753" type="line"/>
      <point x="329" y="805" type="line"/>
    </contour>
  </outline>
</glyph>
<glyph name="divide" format="1">
  <advance width="600"/>
  <unicode hex="00F7"/>
  <outline>
    <contour>
      <point x="543" y="310" type="line"/>
      <point x="52" y="310" type="line"/>
      <point x="52" y="210" type="line"/>
      <point x="543" y="210" type="line"/>
    </contour>
    <component base="colon" xOffset="162"/>
  </outline>
</glyph>
<glyph name="dotlessi" format="1">
  <advance width="248"/>
  <unicode hex="0131"/>
  <outline>
    <contour>
      <point x="178" y="500" type="line"/>
      <point x="70" y="500" type="line"/>
      <point x="70" y="0" type="line"/>
      <point x="178" y="0" type="line"/>
    </contour>
    <contour>
      <point x="223" y="10" type="move" name="ogonek"/>
    </contour>
    <contour>
      <point x="124" y="500" type="move" name="top"/>
    </contour>
  </outline>
</glyph>
<glyph name="Lslash" format="1">
  <advance width="697"/>
  <unicode hex="0141"/>
  <outline>
    <contour>
      <point x="382" y="395" type="line"/>
      <point x="381" y="500" type="line"/>
      <point x="50" y="405" type="line"/>
      <point x="51" y="300" type="line"/>
    </contour>
    <component base="L" xOffset="115"/>
  </outline>
</glyph>
<glyph name="lslash" format="1">
  <advance width="472"/>
  <unicode hex="0142"/>
  <outline>
    <contour>
      <point x="402" y="395" type="line"/>
      <point x="401" y="500" type="line"/>
      <point x="70" y="405" type="line"/>
      <point x="71" y="300" type="line"/>
    </contour>
    <component base="l" xOffset="113"/>
  </outline>
</glyph>
<glyph name="OE" format="1">
  <advance width="1154"/>
  <unicode hex="0152"/>
  <outline>
    <contour>
      <point x="169" y="705"/>
      <point x="30" y="544"/>
      <point x="30" y="348" type="curve" smooth="yes"/>
      <point x="30" y="154"/>
      <point x="170" y="-5"/>
      <point x="379" y="-5" type="curve" smooth="yes"/>
      <point x="463" y="-5"/>
      <point x="535" y="20"/>
      <point x="592" y="63" type="curve"/>
      <point x="605" y="625" type="line"/>
      <point x="547" y="675"/>
      <point x="469" y="705"/>
      <point x="379" y="705" type="curve" smooth="yes"/>
    </contour>
    <contour>
      <point x="525" y="607"/>
      <point x="620" y="498"/>
      <point x="620" y="348" type="curve" smooth="yes"/>
      <point x="620" y="200"/>
      <point x="525" y="93"/>
      <point x="379" y="93" type="curve" smooth="yes"/>
      <point x="233" y="93"/>
      <point x="138" y="200"/>
      <point x="138" y="348" type="curve" smooth="yes"/>
      <point x="138" y="498"/>
      <point x="234" y="607"/>
      <point x="379" y="607" type="curve" smooth="yes"/>
    </contour>
    <component base="E" xOffset="521"/>
    <contour>
      <point x="379" y="700" type="move" name="top"/>
    </contour>
  </outline>
</glyph>
<glyph name="oe" format="1">
  <advance width="953"/>
  <unicode hex="0153"/>
  <outline>
    <component base="o"/>
    <component base="e" xOffset="396"/>
    <contour>
      <point x="546" y="500" type="move" name="top"/>
    </contour>
  </outline>
</glyph>
<glyph name="circumflex" format="1">
  <advance width="600"/>
  <unicode hex="02C6"/>
  <outline>
    <contour>
      <point x="238" y="716" type="line"/>
      <point x="385" y="578" type="line"/>
      <point x="473" y="605" type="line"/>
      <point x="289" y="767" type="line"/>
    </contour>
    <contour>
      <point x="105" y="605" type="line"/>
      <point x="193" y="578" type="line"/>
      <point x="340" y="716" type="line"/>
      <point x="289" y="767" type="line"/>
    </contour>
    <contour>
      <point x="288" y="499" type="move" name="_top"/>
    </contour>
  </outline>
</glyph>
<glyph name="caron" format="1">
  <advance width="600"/>
  <unicode hex="02C7"/>
  <outline>
    <contour>
      <point x="340" y="612" type="line"/>
      <point x="193" y="750" type="line"/>
      <point x="105" y="723" type="line"/>
      <point x="289" y="561" type="line"/>
    </contour>
    <contour>
      <point x="473" y="723" type="line"/>
      <point x="385" y="750" type="line"/>
      <point x="238" y="612" type="line"/>
      <point x="289" y="561" type="line"/>
    </contour>
    <contour>
      <point x="288" y="502" type="move" name="_top"/>
    </contour>
  </outline>
</glyph>
<glyph name="dotaccent" format="1">
  <advance width="248"/>
  <unicode hex="02D9"/>
  <outline>
    <contour>
      <point x="178" y="700" type="line"/>
      <point x="70" y="700" type="line"/>
      <point x="70" y="592" type="line"/>
      <point x="178" y="592" type="line"/>
    </contour>
    <contour>
      <point x="124" y="499" type="move" name="_top"/>
    </contour>
  </outline>
</glyph>
<glyph name="ring" format="1">
  <advance width="554"/>
  <unicode hex="02DA"/>
  <outline>
    <contour>
      <point x="348" y="554"/>
      <point x="405" y="611"/>
      <point x="405" y="682" type="curve"/>
      <point x="405" y="753"/>
      <point x="348" y="810"/>
      <point x="277" y="810" type="curve"/>
      <point x="206" y="810"/>
      <point x="149" y="753"/>
      <point x="149" y="682" type="curve"/>
      <point x="149" y="611"/>
      <point x="206" y="554"/>
      <point x="277" y="554" type="curve"/>
    </contour>
    <contour>
      <point x="239" y="614"/>
      <point x="209" y="644"/>
      <point x="209" y="682" type="curve"/>
      <point x="209" y="720"/>
      <point x="239" y="750"/>
      <point x="277" y="750" type="curve"/>
      <point x="315" y="750"/>
      <point x="345" y="720"/>
      <point x="345" y="682" type="curve"/>
      <point x="345" y="644"/>
      <point x="315" y="614"/>
      <point x="277" y="614" type="curve"/>
    </contour>
    <contour>
      <point x="277" y="499" type="move" name="_top"/>
    </contour>
  </outline>
</glyph>
<glyph name="hungarumlaut" format="1">
  <advance width="788"/>
  <unicode hex="02DD"/>
  <outline>
    <component base="acute" xOffset="236"/>
    <component base="acute" xOffset="-9"/>
    <contour>
      <point x="394" y="499" type="move" name="_top"/>
    </contour>
  </outline>
</glyph>
<glyph name="Delta" format="1">
  <advance width="652"/>
  <unicode hex="0394"/>
  <outline>
    <contour>
      <point x="16" y="0" type="line"/>
      <point x="636" y="0" type="line"/>
      <point x="636" y="115" type="line"/>
      <point x="16" y="115" type="line"/>
    </contour>
    <contour>
      <point x="521" y="115" type="line"/>
      <point x="636" y="115" type="line"/>
      <point x="383" y="700" type="line"/>
      <point x="268" y="700" type="line"/>
    </contour>
    <contour>
      <point x="269" y="700" type="line"/>
      <point x="16" y="115" type="line"/>
      <point x="131" y="115" type="line"/>
      <point x="384" y="700" type="line"/>
    </contour>
  </outline>
</glyph>
<glyph name="emdash" format="1">
  <advance width="600"/>
  <unicode hex="2014"/>
  <outline>
    <contour>
      <point x="585" y="360" type="line"/>
      <point x="14" y="360" type="line"/>
      <point x="14" y="260" type="line"/>
      <point x="585" y="260" type="line"/>
    </contour>
  </outline>
</glyph>
<glyph name="dagger" format="1">
  <advance width="600"/>
  <unicode hex="2020"/>
  <outline>
    <contour>
      <point x="243" y="744" type="line"/>
      <point x="254" y="548" type="line"/>
      <point x="58" y="559" type="line"/>
      <point x="58" y="444" type="line"/>
      <point x="256" y="455" type="line"/>
      <point x="243" y="-151" type="line"/>
      <point x="357" y="-151" type="line"/>
      <point x="344" y="455" type="line"/>
      <point x="542" y="444" type="line"/>
      <point x="542" y="559" type="line"/>
      <point x="346" y="548" type="line"/>
      <point x="357" y="744" type="line"/>
    </contour>
  </outline>
</glyph>
<glyph name="daggerdbl" format="1">
  <advance width="600"/>
  <unicode hex="2021"/>
  <outline>
    <contour>
      <point x="243" y="744" type="line"/>
      <point x="257" y="452" type="line"/>
      <point x="257" y="141" type="line"/>
      <point x="243" y="-151" type="line"/>
      <point x="357" y="-151" type="line"/>
      <point x="343" y="141" type="line"/>
      <point x="343" y="452" type="line"/>
      <point x="357" y="744" type="line"/>
    </contour>
    <contour>
      <point x="300" y="185" type="line"/>
      <point x="58" y="200" type="line"/>
      <point x="58" y="85" type="line"/>
      <point x="300" y="99" type="line"/>
      <point x="542" y="85" type="line"/>
      <point x="542" y="200" type="line"/>
    </contour>
    <contour>
      <point x="300" y="496" type="line"/>
      <point x="58" y="510" type="line"/>
      <point x="58" y="395" type="line"/>
      <point x="300" y="409" type="line"/>
      <point x="542" y="395" type="line"/>
      <point x="542" y="510" type="line"/>
    </contour>
  </outline>
</glyph>
<glyph name="bullet" format="1">
  <advance width="600"/>
  <unicode hex="2022"/>
  <outline>
    <contour>
      <point x="408" y="99"/>
      <point x="496" y="187"/>
      <point x="496" y="295" type="curve" smooth="yes"/>
      <point x="496" y="403"/>
      <point x="408" y="491"/>
      <point x="300" y="491" type="curve" smooth="yes"/>
      <point x="192" y="491"/>
      <point x="104" y="403"/>
      <point x="104" y="295" type="curve" smooth="yes"/>
      <point x="104" y="187"/>
      <point x="192" y="99"/>
      <point x="300" y="99" type="curve" smooth="yes"/>
    </contour>
  </outline>
</glyph>
<glyph name="fraction" format="1">
  <advance width="784"/>
  <unicode hex="2044"/>
  <outline>
    <contour>
      <point x="48" y="0" type="line"/>
      <point x="166" y="0" type="line"/>
      <point x="744" y="749" type="line"/>
      <point x="626" y="749" type="line"/>
    </contour>
  </outline>
</glyph>
<glyph name="Euro" format="1">
  <advance width="781"/>
  <unicode hex="20AC"/>
  <outline>
    <contour>
      <point x="32" y="468" type="line"/>
      <point x="32" y="375" type="line"/>
      <point x="551" y="375" type="line"/>
      <point x="551" y="468" type="line"/>
    </contour>
    <contour>
      <point x="32" y="298" type="line"/>
      <point x="32" y="205" type="line"/>
      <point x="551" y="205" type="line"/>
      <point x="551" y="298" type="line"/>
    </contour>
    <component base="C" xOffset="79"/>
  </outline>
</glyph>
<glyph name="partialdiff" format="1">
  <advance width="573"/>
  <unicode hex="2202"/>
  <outline>
    <contour>
      <point x="556" y="538"/>
      <point x="423" y="786"/>
      <point x="178" y="786" type="curve" smooth="yes"/>
      <point x="171" y="786"/>
      <point x="126" y="784"/>
      <point x="110" y="780" type="curve"/>
      <point x="118" y="741" type="line"/>
      <point x="277" y="772"/>
      <point x="395" y="601"/>
      <point x="430" y="442" type="curve"/>
      <point x="396" y="473"/>
      <point x="334" y="504"/>
      <point x="264" y="504" type="curve" smooth="yes"/>
      <point x="96" y="504"/>
      <point x="11" y="341"/>
      <point x="11" y="226" type="curve" smooth="yes"/>
      <point x="11" y="83"/>
      <point x="129" y="-16"/>
      <point x="256" y="-16" type="curve" smooth="yes"/>
      <point x="419" y="-16"/>
      <point x="556" y="144"/>
      <point x="556" y="335" type="curve" smooth="yes"/>
    </contour>
    <contour>
      <point x="187" y="77"/>
      <point x="117" y="128"/>
      <point x="117" y="217" type="curve" smooth="yes"/>
      <point x="117" y="302"/>
      <point x="183" y="406"/>
      <point x="278" y="406" type="curve" smooth="yes"/>
      <point x="349" y="406"/>
      <point x="424" y="345"/>
      <point x="424" y="257" type="curve" smooth="yes"/>
      <point x="424" y="183"/>
      <point x="369" y="77"/>
      <point x="263" y="77" type="curve" smooth="yes"/>
    </contour>
  </outline>
</glyph>
<glyph name="summation" format="1">
  <advance width="732"/>
  <unicode hex="2211"/>
  <outline>
    <contour>
      <point x="76" y="585" type="line"/>
      <point x="662" y="585" type="line"/>
      <point x="662" y="700" type="line"/>
      <point x="76" y="700" type="line"/>
    </contour>
    <contour>
      <point x="76" y="-107" type="line"/>
      <point x="592" y="300" type="line"/>
      <point x="502" y="355" type="line"/>
      <point x="76" y="8" type="line"/>
    </contour>
    <contour>
      <point x="76" y="-107" type="line"/>
      <point x="662" y="-107" type="line"/>
      <point x="662" y="8" type="line"/>
      <point x="76" y="8" type="line"/>
    </contour>
    <contour>
      <point x="76" y="-107" type="line"/>
      <point x="662" y="-107" type="line"/>
      <point x="662" y="8" type="line"/>
      <point x="76" y="8" type="line"/>
    </contour>
    <contour>
      <point x="480" y="267" type="line"/>
      <point x="592" y="301" type="line"/>
      <point x="76" y="700" type="line"/>
      <point x="76" y="585" type="line"/>
    </contour>
  </outline>
</glyph>
<glyph name="minus" format="1">
  <advance width="820"/>
  <unicode hex="2212"/>
  <outline>
    <contour>
      <point x="48" y="249" type="line"/>
      <point x="772" y="249" type="line"/>
      <point x="772" y="359" type="line"/>
      <point x="48" y="359" type="line"/>
    </contour>
  </outline>
</glyph>
<glyph name="radical" format="1">
  <advance width="497"/>
  <unicode hex="221A"/>
  <outline>
    <contour>
      <point x="215" y="-18" type="line"/>
      <point x="278" y="-18" type="line"/>
      <point x="179" y="271" type="line"/>
      <point x="116" y="271" type="line"/>
    </contour>
    <contour>
      <point x="402" y="521" type="line"/>
      <point x="217" y="-18" type="line"/>
      <point x="280" y="-18" type="line"/>
      <point x="465" y="521" type="line"/>
    </contour>
    <contour>
      <point x="36" y="210" type="line"/>
      <point x="69" y="170" type="line"/>
      <point x="169" y="251" type="line"/>
      <point x="116" y="271" type="line"/>
    </contour>
  </outline>
</glyph>
<glyph name="infinity" format="1">
  <advance width="858"/>
  <unicode hex="221E"/>
  <outline>
    <contour>
      <point x="418" y="441"/>
      <point x="327" y="549"/>
      <point x="209" y="549" type="curve" smooth="yes"/>
      <point x="91" y="549"/>
      <point x="30" y="440"/>
      <point x="30" y="345" type="curve" smooth="yes"/>
      <point x="30" y="250"/>
      <point x="90" y="142"/>
      <point x="208" y="142" type="curve" smooth="yes"/>
      <point x="326" y="142"/>
      <point x="444" y="277"/>
      <point x="508" y="346" type="curve" smooth="yes"/>
      <point x="558" y="400"/>
      <point x="594" y="441"/>
      <point x="648" y="441" type="curve" smooth="yes"/>
      <point x="713" y="441"/>
      <point x="740" y="389"/>
      <point x="740" y="345" type="curve" smooth="yes"/>
      <point x="740" y="301"/>
      <point x="714" y="250"/>
      <point x="649" y="250" type="curve" smooth="yes"/>
      <point x="594" y="250"/>
      <point x="546" y="306"/>
      <point x="508" y="346" type="curve" smooth="yes"/>
    </contour>
    <contour>
      <point x="329" y="313"/>
      <point x="274" y="250"/>
      <point x="209" y="250" type="curve" smooth="yes"/>
      <point x="154" y="250"/>
      <point x="118" y="292"/>
      <point x="118" y="346" type="curve" smooth="yes"/>
      <point x="118" y="400"/>
      <point x="154" y="441"/>
      <point x="208" y="441" type="curve" smooth="yes"/>
      <point x="273" y="441"/>
      <point x="318" y="396"/>
      <point x="360" y="345" type="curve" smooth="yes"/>
      <point x="412" y="282"/>
      <point x="530" y="142"/>
      <point x="648" y="142" type="curve" smooth="yes"/>
      <point x="766" y="142"/>
      <point x="828" y="251"/>
      <point x="828" y="346" type="curve" smooth="yes"/>
      <point x="828" y="441"/>
      <point x="767" y="549"/>
      <point x="649" y="549" type="curve" smooth="yes"/>
      <point x="531" y="549"/>
      <point x="450" y="440"/>
      <point x="360" y="345" type="curve" smooth="yes"/>
    </contour>
  </outline>
</glyph>
<glyph name="notequal" format="1">
  <advance width="600"/>
  <unicode hex="2260"/>
  <outline>
    <contour>
      <point x="380" y="651" type="line"/>
      <point x="152" y="-119" type="line"/>
      <point x="257" y="-119" type="line"/>
      <point x="485" y="651" type="line"/>
    </contour>
    <component base="equal"/>
  </outline>
</glyph>
<glyph name="lessequal" format="1">
  <advance width="600"/>
  <unicode hex="2264"/>
  <outline>
    <contour>
      <point x="555" y="100" type="line"/>
      <point x="24" y="100" type="line"/>
      <point x="24" y="0" type="line"/>
      <point x="555" y="0" type="line"/>
    </contour>
    <component base="less" yOffset="125"/>
  </outline>
</glyph>
<glyph name="fi" format="1">
  <advance width="602"/>
  <unicode hex="FB01"/>
  <outline>
    <contour>
      <point x="118" y="746"/>
      <point x="63" y="658"/>
      <point x="63" y="587" type="curve" smooth="yes"/>
      <point x="63" y="564"/>
      <point x="67" y="529"/>
      <point x="89" y="500" type="curve"/>
      <point x="3" y="500" type="line"/>
      <point x="3" y="400" type="line"/>
      <point x="94" y="400" type="line"/>
      <point x="93" y="0" type="line"/>
      <point x="201" y="0" type="line"/>
      <point x="201" y="400" type="line"/>
      <point x="447.949" y="400" type="line"/>
      <point x="447.949" y="500" type="line"/>
      <point x="217" y="500" type="line"/>
      <point x="164" y="511"/>
      <point x="151" y="557"/>
      <point x="151" y="584" type="curve" smooth="yes"/>
      <point x="151" y="634"/>
      <point x="204" y="658"/>
      <point x="248" y="658" type="curve" smooth="yes"/>
      <point x="317" y="658"/>
      <point x="347" y="611"/>
      <point x="366" y="582" type="curve"/>
      <point x="530" y="582" type="line"/>
      <point x="530" y="700" type="line"/>
      <point x="379" y="700" type="line"/>
      <point x="366" y="714"/>
      <point x="315" y="746"/>
      <point x="248" y="746" type="curve" smooth="yes"/>
    </contour>
    <contour>
      <point x="422" y="500" type="line"/>
      <point x="422" y="0" type="line"/>
      <point x="530" y="0" type="line"/>
      <point x="530" y="500" type="line"/>
    </contour>
  </outline>
</glyph>
